<?xml version="1.0" standalone="no"?>
<!DOCTYPE svg PUBLIC "-//W3C//DTD SVG 20010904//EN"
 "http://www.w3.org/TR/2001/REC-SVG-20010904/DTD/svg10.dtd">
<svg version="1.0" xmlns="http://www.w3.org/2000/svg"
 width="1280.000000pt" height="969.000000pt" viewBox="0 0 1280.000000 969.000000"
 preserveAspectRatio="xMidYMid meet">
<metadata>
Created by potrace 1.15, written by Peter Selinger 2001-2017
</metadata>
<g transform="translate(0.000000,969.000000) scale(0.100000,-0.100000)"
fill="#000000" stroke="none">
<path d="M6611 9664 c-59 -75 -27 -210 78 -326 38 -42 50 -65 60 -112 14 -65
71 -179 145 -294 91 -139 136 -263 136 -370 0 -43 -3 -49 -35 -71 -30 -20 -39
-22 -60 -13 -36 17 -60 62 -85 161 -16 65 -51 144 -141 321 -169 329 -200 380
-292 466 -109 103 -181 137 -302 142 -149 7 -187 -9 -318 -130 -110 -103 -123
-119 -137 -169 -16 -56 10 -38 74 49 123 167 187 207 323 200 64 -3 83 -1 83
9 0 21 28 15 106 -22 145 -70 240 -187 378 -462 42 -84 76 -155 76 -158 0 -3
-7 -5 -15 -5 -20 0 -20 -1 15 -105 16 -50 30 -93 30 -96 0 -4 -17 -9 -38 -13
-21 -3 -58 -20 -81 -37 -24 -17 -44 -29 -46 -27 -12 13 -35 86 -35 112 0 20
-7 36 -20 44 -13 8 -20 23 -20 42 0 19 -9 38 -24 51 -13 12 -27 36 -31 55 -9
48 -80 199 -114 243 -15 20 -49 73 -76 119 -79 138 -127 172 -240 173 -55 1
-70 -3 -107 -29 -68 -48 -151 -139 -224 -247 -64 -95 -72 -100 -43 -28 10 25
11 35 1 45 -16 16 -50 -63 -68 -161 -19 -106 -18 -109 12 -80 24 22 104 173
104 196 0 5 36 53 79 105 116 140 195 187 288 173 37 -5 54 -16 92 -55 82 -86
156 -228 316 -613 34 -84 73 -176 86 -205 l23 -52 -87 -88 c-87 -88 -87 -88
-140 -88 -70 -1 -255 -54 -400 -115 -146 -62 -222 -79 -360 -79 -108 0 -108 0
-102 -22 57 -197 247 -309 530 -312 66 0 132 3 148 7 15 4 27 3 27 -2 0 -5
-48 -58 -107 -118 -143 -144 -190 -168 -324 -168 -69 0 -101 4 -114 15 -25 20
-158 200 -172 232 -6 14 -21 31 -32 37 -19 11 -21 9 -18 -28 2 -27 11 -50 28
-68 14 -15 41 -48 59 -73 94 -126 168 -177 274 -187 62 -5 63 -5 146 46 46 29
102 67 124 84 44 35 145 166 165 215 10 23 27 38 65 55 28 13 85 49 126 81
l75 56 6 -67 c7 -71 32 -143 79 -230 l28 -53 -26 -12 c-58 -28 -98 -129 -71
-177 11 -20 24 -27 53 -29 46 -4 56 7 56 65 0 25 6 48 17 58 15 16 19 14 49
-22 27 -31 32 -44 28 -70 -10 -55 6 -92 72 -167 70 -80 82 -112 65 -172 -6
-21 -18 -89 -26 -150 -13 -107 -42 -203 -52 -176 -3 6 -9 9 -14 6 -7 -4 -8 8
-3 32 6 32 5 36 -10 31 -10 -4 -16 -1 -16 7 0 8 -7 16 -15 20 -8 3 -15 15 -15
26 0 11 -4 20 -10 20 -5 0 -10 -9 -10 -20 0 -11 -5 -20 -11 -20 -7 0 -8 14 -4
40 4 21 4 49 0 60 -6 20 -7 21 -21 3 -12 -16 -13 -15 -14 14 0 20 -10 42 -26
60 l-25 28 5 -45 c3 -25 26 -86 51 -135 25 -50 45 -102 45 -116 0 -15 14 -71
31 -125 30 -96 30 -103 24 -226 -4 -85 -3 -134 5 -147 19 -37 26 -23 19 42 -8
86 3 115 19 45 29 -125 86 -185 188 -195 53 -6 54 -7 54 -37 0 -17 7 -58 15
-91 25 -106 20 -163 -21 -231 -20 -33 -39 -78 -41 -101 -3 -24 -9 -40 -14 -38
-15 10 -21 92 -9 115 6 12 9 25 5 28 -13 13 -31 -27 -44 -94 l-12 -67 39 -45
c57 -68 62 -66 62 26 0 58 4 83 15 92 8 6 24 37 37 68 19 48 22 76 23 182 0
73 -5 138 -12 158 -12 31 -11 32 14 32 85 0 149 46 225 162 51 79 55 89 73
199 14 91 16 133 9 190 -19 162 -11 258 47 572 16 88 29 161 29 164 0 3 6 0
14 -6 11 -9 18 -6 36 18 11 17 41 45 65 62 25 18 45 36 45 40 0 4 -11 10 -25
13 -31 8 -32 29 -4 140 22 90 29 96 106 96 14 0 38 9 53 20 15 11 50 26 76 32
33 9 81 37 146 86 108 81 138 113 138 148 0 23 -4 24 -58 24 -69 0 -133 18
-259 71 -62 27 -120 44 -177 51 -84 11 -85 12 -80 38 10 46 -147 232 -241 288
-7 4 -21 25 -32 47 -23 46 -118 341 -129 398 -3 21 -16 50 -28 65 -12 15 -37
65 -55 112 -87 223 -226 402 -368 474 -31 15 -32 15 -52 -10z m43 -67 c14 -10
20 -34 26 -98 4 -46 6 -85 5 -87 -6 -7 -64 125 -70 161 -7 41 6 48 39 24z
m147 -79 c137 -165 240 -381 322 -669 l24 -87 -48 2 -49 1 -84 256 c-85 255
-141 393 -196 480 -33 51 -36 59 -17 59 7 0 29 -19 48 -42z m-57 -43 c9 -13
29 -59 45 -102 16 -43 63 -168 105 -277 65 -169 82 -226 62 -205 -15 15 -146
262 -156 294 -7 22 -19 56 -27 75 -24 56 -41 112 -48 155 -3 22 -8 50 -11 63
-6 29 10 28 30 -3z m111 -1440 c30 -41 63 -79 74 -85 22 -11 36 -53 47 -139
l7 -54 -37 6 c-44 7 -139 53 -191 92 -43 33 -75 91 -75 136 0 25 11 43 49 81
28 28 55 47 61 43 5 -3 35 -40 65 -80z m565 15 c6 -10 13 -40 16 -65 9 -62
-16 -123 -71 -174 -77 -71 -105 -51 -105 72 l0 74 59 56 c64 61 84 68 101 37z
m-223 -302 c65 -61 94 -195 56 -259 -16 -26 -16 -32 0 -81 23 -77 37 -171 37
-265 0 -71 3 -85 24 -110 l23 -28 -6 -225 c-6 -207 -9 -229 -30 -272 -12 -27
-35 -56 -49 -67 -27 -18 -101 -46 -106 -39 -2 1 -15 24 -30 50 -35 61 -79 98
-117 98 -27 0 -29 3 -29 36 0 24 -4 34 -12 32 -20 -7 -21 -45 -4 -70 9 -12 16
-30 16 -40 0 -10 22 -35 49 -55 65 -50 89 -92 73 -127 -25 -56 -152 -21 -219
60 l-36 45 6 136 c4 83 2 155 -4 185 l-11 50 67 68 67 68 10 168 c10 178 28
276 55 307 15 15 15 23 4 50 -19 50 -26 168 -11 213 31 96 115 130 177 72z
m-347 -143 c41 -40 44 -62 9 -70 -56 -12 -129 17 -129 52 0 12 4 11 22 -1 12
-9 36 -16 53 -16 l30 1 -23 18 c-12 11 -41 22 -63 26 -56 10 -31 28 29 22 30
-3 53 -13 72 -32z m634 -58 c8 -13 6 -20 -9 -31 -20 -15 -55 -21 -55 -10 0 3
8 19 17 35 19 31 30 33 47 6z m-614 -1210 c67 -60 164 -92 258 -85 66 5 67 5
32 -9 -82 -35 -206 0 -327 91 -63 48 -63 48 -63 99 l0 51 26 -52 c14 -28 47
-71 74 -95z m390 35 c0 -22 -45 -67 -82 -81 -41 -16 -35 3 18 54 50 49 64 55
64 27z"/>
<path d="M6170 9501 c0 -11 31 -24 39 -16 3 3 -1 10 -9 15 -19 12 -30 12 -30
1z"/>
<path d="M2570 8460 c-19 -5 -95 -14 -169 -20 -145 -12 -198 -28 -240 -74 -14
-14 -33 -26 -43 -26 -22 0 -107 -42 -165 -81 -23 -16 -49 -29 -58 -29 -9 0
-58 -40 -108 -88 -74 -71 -113 -99 -202 -146 -125 -66 -136 -73 -265 -186
-158 -137 -189 -154 -510 -265 -251 -87 -292 -111 -440 -249 -42 -39 -92 -83
-112 -98 -25 -19 -52 -60 -92 -137 -31 -61 -61 -113 -66 -116 -6 -3 -10 -24
-10 -45 0 -23 -15 -77 -36 -126 -39 -94 -43 -148 -6 -76 15 29 28 42 40 40 14
-3 19 12 31 85 10 60 19 87 29 87 8 0 11 7 8 18 -4 11 4 32 19 52 13 18 31 57
40 87 34 116 247 292 460 378 44 18 122 51 173 74 91 40 243 86 263 79 6 -2
-46 -56 -115 -121 -81 -77 -131 -132 -143 -158 -10 -22 -32 -49 -50 -60 -19
-12 -33 -29 -33 -40 0 -22 -92 -127 -98 -111 -2 6 6 29 18 52 15 29 17 41 8
38 -13 -5 -21 -18 -58 -100 -12 -27 -25 -48 -29 -48 -4 0 -7 29 -9 64 -1 58
-17 124 -27 115 -2 -3 -13 -47 -24 -98 -24 -110 -71 -218 -112 -257 -16 -15
-29 -23 -29 -16 0 6 5 14 11 18 6 3 19 25 29 47 14 32 16 46 8 61 -10 19 -13
15 -29 -31 -23 -69 -62 -123 -148 -208 -78 -77 -93 -80 -31 -6 22 26 40 50 40
54 0 18 -23 2 -76 -54 -63 -65 -115 -100 -122 -80 -2 7 -12 6 -31 -3 -28 -15
-57 -44 -50 -50 2 -3 54 8 114 24 109 28 111 28 193 101 127 113 201 196 234
263 l30 61 -6 -55 -6 -55 37 41 c21 22 58 63 82 90 41 45 45 47 49 26 4 -27
-14 -210 -23 -234 -5 -12 -2 -17 12 -17 10 0 33 -3 50 -7 30 -6 34 -11 54 -76
55 -184 61 -268 24 -342 -18 -38 -21 -54 -14 -69 10 -18 11 -18 24 0 8 10 26
53 41 96 14 43 37 90 51 105 l24 27 -5 -80 c-3 -44 -8 -111 -12 -149 -8 -83 7
-84 30 -2 16 53 40 85 53 72 11 -10 5 -89 -12 -172 -8 -40 -15 -78 -15 -84 0
-23 18 -8 35 30 10 22 26 46 35 55 16 15 18 14 24 -9 3 -13 -1 -59 -9 -102
-11 -56 -12 -81 -4 -91 14 -16 29 -8 29 18 0 38 32 15 43 -31 4 -14 1 -52 -5
-86 -12 -66 -4 -132 13 -102 5 9 15 46 23 83 8 36 16 69 19 72 15 15 17 -76 3
-195 -9 -74 -16 -148 -16 -165 1 -30 1 -31 15 -13 8 11 15 28 15 38 0 35 18
18 25 -24 7 -38 9 -40 21 -23 8 10 17 16 20 12 12 -12 -9 -89 -47 -168 -21
-44 -39 -81 -39 -82 0 -1 21 -1 47 -1 42 1 48 5 56 28 5 14 15 26 23 26 18 0
18 -81 0 -133 -11 -29 -11 -43 -2 -62 14 -31 21 -31 40 -3 32 45 24 9 -14 -67
-51 -102 -51 -115 -2 -115 55 1 115 32 141 74 13 20 26 36 31 36 15 0 20 -51
14 -143 -6 -78 -4 -94 10 -106 14 -12 16 -11 16 8 0 25 17 28 24 4 15 -52 15
-108 3 -314 l-14 -225 -53 -115 c-49 -105 -53 -120 -54 -190 -1 -68 3 -83 37
-150 31 -62 96 -149 112 -149 2 0 -12 37 -31 83 -66 150 -76 187 -72 259 3 57
8 72 35 106 48 60 86 256 88 454 1 88 5 151 12 160 6 7 14 28 18 47 10 45 32
98 45 106 5 3 10 17 10 30 0 13 12 38 28 56 l27 33 5 -54 c3 -29 10 -55 17
-57 22 -8 24 35 3 86 l-20 51 39 83 c51 108 67 163 81 272 10 83 29 135 48
135 5 0 21 -35 36 -77 41 -114 47 -234 16 -323 -22 -63 -22 -109 0 -95 22 14
58 223 70 405 0 3 5 -2 9 -10 11 -19 46 -274 43 -315 -10 -168 -22 -247 -46
-313 -15 -40 -26 -85 -24 -100 3 -23 7 -27 36 -26 35 2 40 -10 17 -40 -8 -11
-15 -29 -15 -39 0 -17 2 -17 16 -6 21 17 44 63 44 88 0 12 14 33 31 48 18 16
44 56 60 90 15 34 39 69 53 78 14 10 26 26 26 36 0 11 5 19 11 19 7 0 9 12 5
35 -6 29 -3 36 19 51 14 9 24 23 21 30 -5 14 16 89 37 131 31 59 57 163 88
343 17 102 33 187 36 190 3 3 3 -89 1 -205 -3 -225 -12 -266 -58 -278 -23 -6
-19 -33 8 -54 26 -21 41 -15 62 28 12 23 23 39 25 37 1 -1 -15 -79 -36 -173
-64 -281 -69 -396 -27 -542 9 -32 9 -46 1 -54 -8 -8 -16 -2 -28 22 -45 89 -70
90 -62 2 3 -38 3 -62 0 -55 -2 6 -13 12 -23 12 -23 0 -58 102 -67 197 l-6 62
-23 -16 c-23 -14 -24 -21 -23 -117 0 -120 12 -219 30 -263 14 -34 5 -58 -11
-33 -33 51 -54 131 -56 210 -3 106 -2 100 -15 100 -34 0 -51 -142 -24 -206 8
-20 12 -41 8 -48 -4 -6 -10 -36 -14 -66 l-6 -55 -14 33 c-7 17 -19 32 -26 32
-19 0 -16 -48 7 -121 25 -77 21 -97 -10 -47 -12 21 -28 38 -36 38 -44 0 47
-208 129 -294 54 -57 52 -67 -8 -42 -35 15 -82 71 -117 141 -25 50 -68 108
-75 101 -3 -3 20 -52 51 -110 30 -59 52 -106 47 -106 -23 0 -121 112 -150 170
-43 86 -55 97 -47 42 13 -88 87 -183 178 -232 38 -19 51 -35 78 -89 18 -36 74
-140 125 -231 126 -225 171 -330 190 -445 13 -81 38 -156 61 -180 28 -30 61
-32 114 -5 22 11 43 20 48 20 5 0 7 -22 4 -49 -6 -66 13 -116 62 -165 75 -76
237 -108 352 -70 93 30 92 26 29 154 -30 62 -55 123 -55 135 0 31 -22 47 -131
98 l-96 45 -8 48 c-9 64 -26 95 -71 130 -205 160 -374 441 -374 621 0 42 4 55
22 68 19 13 21 18 10 35 -22 36 -13 37 44 8 l57 -28 14 26 c12 25 11 30 -20
68 -37 45 -61 86 -51 86 3 0 22 -13 41 -30 18 -16 42 -30 53 -30 17 0 19 8 18
73 0 93 0 97 12 97 6 0 10 -13 10 -30 0 -16 4 -30 10 -30 13 0 24 45 17 71 -4
16 -2 19 14 14 23 -8 23 -11 -2 55 -31 81 -22 153 23 190 21 17 52 65 82 128
48 98 50 100 66 79 11 -13 23 -18 35 -13 17 6 17 8 1 25 -16 18 -15 19 24 38
l40 20 0 -90 c0 -89 0 -90 20 -72 10 9 25 34 31 54 17 52 21 57 30 33 9 -24
33 -29 46 -9 4 6 13 28 18 47 16 52 38 45 48 -15 13 -73 24 -97 45 -93 15 3
17 14 15 78 -2 41 0 69 3 62 5 -10 9 -10 20 -1 8 7 16 10 18 8 2 -2 21 -58 41
-124 21 -66 38 -121 40 -123 1 -1 14 3 29 9 24 11 26 17 26 80 0 37 4 71 10
74 5 3 17 -12 26 -34 19 -47 44 -62 44 -26 0 18 4 23 15 18 9 -3 25 3 37 13
20 19 21 19 32 0 30 -51 76 -103 111 -127 43 -30 58 -30 32 -1 -16 18 -23 42
-12 42 3 0 17 -12 30 -27 22 -26 24 -26 31 -9 4 10 2 48 -3 85 -6 36 -9 68 -7
70 2 2 12 -3 22 -12 28 -26 35 -21 28 21 -5 32 -4 34 7 18 6 -10 26 -36 44
-57 17 -22 35 -49 38 -60 6 -17 12 -19 38 -13 44 9 46 13 14 36 -25 18 -40 47
-17 33 6 -3 10 3 10 15 0 18 3 19 21 10 29 -16 35 -5 21 33 -7 19 -12 41 -12
51 0 30 23 12 37 -29 7 -21 18 -44 24 -51 16 -20 32 -17 24 4 -26 61 -7 70 48
22 36 -31 97 -51 97 -32 0 6 -4 14 -10 17 -5 3 -10 11 -10 17 0 6 12 1 26 -13
l27 -24 -7 35 -6 34 20 -22 c12 -12 25 -20 29 -18 4 3 13 30 20 60 15 67 45
109 61 86 9 -13 14 -11 31 13 24 32 55 35 64 7 11 -36 16 -32 108 103 26 38
47 73 47 79 0 5 -21 -5 -47 -24 -68 -49 -143 -91 -149 -85 -3 3 4 10 15 17 26
13 157 188 184 245 11 22 28 46 38 53 31 22 62 144 56 219 -7 96 -23 99 -30 6
-6 -81 -26 -154 -44 -160 -5 -2 -15 25 -21 59 -18 94 -30 134 -51 160 -19 23
-19 21 -18 -142 2 -165 2 -165 -28 -225 -38 -76 -58 -84 -34 -13 19 56 24 210
10 348 l-6 65 -18 -27 c-15 -22 -18 -38 -12 -90 8 -73 -12 -147 -51 -188 -13
-14 -28 -49 -34 -77 -10 -45 -65 -141 -75 -131 -2 2 9 41 26 86 55 157 72 240
73 354 1 149 -15 158 -38 20 -36 -218 -74 -331 -135 -402 -36 -42 -39 -27 -11
54 47 138 62 214 58 293 -3 43 -11 92 -18 108 -13 28 -14 25 -21 -72 -12 -158
-48 -270 -116 -360 -24 -31 -107 -93 -125 -93 -4 0 13 40 39 90 36 69 48 102
51 148 6 80 -26 140 -42 78 -3 -13 -24 -48 -46 -77 -22 -29 -40 -59 -40 -66 0
-7 -9 -13 -19 -13 -11 0 -38 -16 -61 -35 -68 -56 -66 -29 2 44 146 155 174
193 187 253 7 32 30 93 51 135 22 42 42 98 46 123 8 62 24 110 36 110 15 0 0
-94 -32 -190 -15 -47 -27 -86 -25 -88 1 -2 19 19 38 45 47 64 111 185 131 249
9 29 25 59 36 69 13 12 17 25 14 45 -4 17 2 46 15 75 27 60 27 129 1 230 -52
204 -65 294 -64 470 0 131 5 200 23 300 22 127 24 131 91 240 37 61 77 129 88
151 11 22 32 46 46 53 25 14 41 39 31 49 -3 3 -22 0 -41 -7 -72 -26 -58 4 50
104 59 53 106 101 106 106 0 18 -37 -6 -92 -59 -32 -31 -61 -53 -64 -49 -4 4
5 16 19 28 24 18 37 49 21 49 -25 0 -148 -73 -188 -112 -48 -46 -49 -48 -33
-72 16 -24 15 -27 -10 -65 -15 -23 -30 -41 -34 -41 -4 0 -12 -23 -18 -50 -6
-28 -27 -92 -47 -143 -57 -145 -64 -175 -73 -286 -5 -62 -13 -107 -19 -109 -7
-2 -9 -16 -6 -35 4 -22 2 -27 -4 -17 -29 47 -20 229 19 377 18 70 70 207 122
326 14 31 22 57 18 57 -23 0 -87 -97 -106 -160 -14 -50 -58 -140 -68 -140 -15
0 -3 77 23 148 17 46 31 67 50 77 37 19 127 145 105 145 -3 0 -25 -20 -48 -45
-39 -40 -77 -59 -77 -37 0 12 66 72 137 126 62 47 95 86 73 86 -21 0 -55 -22
-100 -66 -25 -24 -61 -50 -80 -58 -32 -14 -257 -233 -324 -316 l-28 -35 5 43
c6 52 34 107 94 185 41 53 43 58 22 55 -14 -2 -33 -18 -46 -38 -48 -76 -75
-90 -71 -38 3 30 1 32 -31 32 -29 1 -36 -3 -42 -26 -4 -16 -25 -48 -47 -73
-27 -31 -43 -60 -47 -88 -4 -23 -13 -51 -21 -62 -7 -11 -21 -48 -30 -82 -10
-35 -23 -63 -30 -63 -8 0 -15 -21 -19 -57 -7 -63 -22 -110 -38 -120 -17 -11 1
104 32 196 16 48 56 146 89 219 60 131 63 161 10 105 -36 -39 -117 -185 -134
-240 -8 -26 -21 -54 -30 -64 -9 -10 -29 -54 -44 -99 l-28 -82 -8 58 c-6 52 -5
59 14 72 16 11 19 20 15 47 -4 24 4 54 32 116 20 46 41 104 46 128 5 24 22 65
38 90 36 56 49 101 29 101 -28 0 -121 -73 -244 -192 l-126 -122 -19 23 c-19
23 -26 91 -13 126 6 14 10 13 32 -7 l25 -23 -7 29 c-17 70 -17 82 -3 95 13 10
16 8 22 -9 7 -23 25 -17 25 9 0 10 9 26 20 36 22 20 24 33 10 55 -9 13 -12 12
-25 -4 -14 -19 -15 -19 -15 6 0 14 5 40 11 57 14 38 7 47 -47 66 -32 11 -43
11 -64 0 -26 -13 -192 -183 -255 -260 -43 -52 -101 -155 -116 -205 -7 -23 -20
-42 -31 -45 -13 -5 -18 -16 -18 -40 0 -28 -3 -33 -17 -28 -13 5 -15 2 -9 -12
6 -16 -29 -85 -44 -85 -3 0 -4 31 -2 69 3 58 7 70 23 74 24 6 25 41 2 71 -16
20 -17 37 -12 147 5 100 12 137 33 193 14 37 26 83 26 101 0 24 5 34 20 38 13
3 31 28 50 70 31 68 100 140 164 171 51 24 147 20 246 -9 46 -14 107 -25 135
-25 29 0 66 -7 84 -16 32 -16 195 -53 241 -55 22 -1 22 -2 -7 -10 -30 -9 -55
-29 -35 -29 5 0 58 7 118 16 115 16 188 13 235 -12 22 -11 38 -12 77 -4 39 9
72 7 167 -10 65 -11 121 -17 124 -14 9 9 -29 33 -69 44 -20 6 -80 7 -141 4
-92 -6 -113 -4 -167 15 -49 16 -86 21 -175 21 -124 0 -158 6 -151 24 4 9 -14
15 -59 19 -40 4 -102 21 -168 48 -57 23 -122 47 -144 54 -22 7 -34 13 -27 14
6 1 12 5 12 10 0 4 -25 9 -56 10 -30 0 -65 6 -77 13 l-22 13 23 3 c12 2 22 8
22 13 0 12 -14 11 -44 -2 -18 -9 -33 -9 -56 0 -18 6 -113 25 -213 42 l-180 31
-71 -38 c-39 -21 -94 -49 -122 -63 -28 -15 -62 -41 -75 -60 -37 -54 -90 -115
-106 -125 -8 -4 10 25 40 66 56 74 96 149 97 180 0 15 -5 15 -57 1 -196 -50
-337 -189 -383 -378 -11 -46 -10 -58 15 -145 15 -52 34 -107 42 -122 8 -17 9
-28 3 -28 -13 0 -45 70 -61 133 -6 26 -21 60 -32 74 -19 24 -21 25 -28 7 -4
-10 -8 -53 -8 -96 -1 -70 -3 -76 -20 -71 -26 7 -34 -10 -47 -107 l-11 -85 -2
103 c-1 83 -4 104 -17 109 -27 10 -45 -21 -55 -98 -16 -115 -18 -122 -36 -115
-8 4 -22 1 -31 -6 -13 -11 -14 -4 -10 62 6 89 23 126 119 261 65 90 116 185
106 195 -12 12 -37 -12 -48 -44 -17 -51 -59 -106 -161 -212 -81 -84 -108 -104
-108 -80 0 6 -4 10 -10 10 -5 0 -10 -11 -10 -24 0 -29 -22 -50 -37 -35 -6 6
-14 -4 -23 -33 -7 -24 -15 -37 -17 -30 -7 20 -23 14 -23 -9 0 -12 -15 -36 -33
-54 -18 -18 -52 -64 -75 -103 -24 -40 -58 -84 -77 -99 -19 -16 -35 -35 -35
-44 0 -9 -7 -23 -17 -30 -15 -13 -16 -10 -9 30 11 73 53 141 88 141 12 0 18 7
18 23 0 37 57 143 96 177 19 16 33 34 30 39 -9 14 22 34 40 27 13 -5 15 -2 11
13 -3 12 6 32 22 53 42 52 142 198 136 198 -26 0 -73 -41 -105 -93 -57 -92
-79 -117 -116 -135 -19 -9 -33 -21 -33 -26 1 -6 1 -16 0 -22 -2 -17 -181 -194
-196 -194 -12 0 -22 -15 -59 -87 -6 -12 -20 -27 -31 -33 -19 -10 -40 -42 -110
-165 -38 -66 -54 -85 -71 -85 -12 0 -12 4 0 28 20 39 46 132 37 132 -4 0 -16
-9 -26 -20 -10 -11 -25 -20 -34 -20 -9 0 -25 -13 -34 -30 -36 -60 -68 -91 -89
-84 -11 3 -31 0 -44 -7 -13 -7 -27 -10 -30 -6 -8 7 32 140 56 187 10 19 29 46
42 60 13 14 36 46 51 72 41 72 117 130 276 212 144 74 219 127 353 246 51 46
70 71 82 108 10 29 32 63 54 84 56 53 230 181 292 216 70 39 240 96 350 117
130 24 130 25 130 38 0 9 11 12 35 9 28 -3 35 -1 35 13 0 17 11 17 143 12 173
-7 256 -24 384 -78 103 -45 207 -66 168 -35 -11 8 -17 16 -14 16 26 1 477
-181 547 -221 80 -47 223 -69 492 -79 192 -6 240 -11 330 -34 58 -14 122 -26
143 -26 29 0 40 -5 44 -18 3 -13 12 -17 36 -14 33 3 99 -10 246 -48 62 -17
100 -21 141 -17 37 4 61 2 68 -5 17 -17 27 -2 12 17 -16 19 2 20 49 4 30 -11
43 -29 20 -29 -8 0 -8 -5 1 -15 7 -8 21 -15 32 -15 14 0 18 5 14 15 -7 20 3
19 25 -1 10 -9 26 -14 35 -10 15 6 15 8 -2 28 -34 38 -113 68 -181 68 -34 0
-74 -4 -88 -10 -21 -8 -58 -2 -178 29 -84 22 -185 43 -225 47 -50 4 -79 12
-90 24 -22 23 -121 36 -404 55 -329 21 -417 36 -526 91 -37 19 -79 34 -95 34
-15 0 -87 30 -160 66 -176 89 -195 95 -317 104 -88 6 -116 12 -171 39 -45 22
-75 30 -91 26 -14 -4 -72 7 -139 24 -116 32 -157 35 -219 21z m390 -274 c0 -8
-16 -15 -43 -19 -23 -3 -68 -18 -100 -33 -32 -14 -61 -24 -64 -20 -10 9 111
60 205 85 1 1 2 -5 2 -13z m-287 -145 c-29 -26 -53 -51 -53 -56 0 -5 -6 -16
-14 -24 -8 -9 -20 -38 -28 -65 -7 -27 -18 -51 -25 -53 -12 -4 13 71 47 136 20
41 93 111 113 111 6 -1 -12 -22 -40 -49z m-136 -273 c-3 -7 -5 -2 -5 12 0 14
2 19 5 13 2 -7 2 -19 0 -25z m683 -53 c-21 -26 -31 -16 -13 11 9 15 19 21 21
15 2 -6 -2 -18 -8 -26z m-40 -54 c-5 -11 -15 -23 -20 -26 -14 -9 -12 19 2 33
19 19 30 14 18 -7z m806 -354 c-25 -63 -46 -122 -46 -131 0 -20 -19 -31 -25
-13 -9 22 40 162 75 217 18 28 35 49 37 46 2 -2 -16 -56 -41 -119z m-271 -206
c-8 -32 -24 -53 -36 -45 -14 8 -11 37 7 62 20 28 38 18 29 -17z m363 -72 c-6
-56 -21 -80 -39 -62 -7 7 -9 29 -4 62 6 42 10 51 27 51 19 0 20 -5 16 -51z
m-498 -15 c0 -8 -4 -14 -10 -14 -5 0 -10 9 -10 21 0 11 5 17 10 14 6 -3 10
-13 10 -21z m119 -10 c-6 -8 -15 -14 -20 -14 -14 0 -11 28 4 33 20 7 29 -4 16
-19z m-2699 -45 c0 -5 -4 -9 -10 -9 -5 0 -10 7 -10 16 0 8 5 12 10 9 6 -3 10
-10 10 -16z m2552 -11 c-7 -7 -12 -8 -12 -2 0 14 12 26 19 19 2 -3 -1 -11 -7
-17z m138 8 c0 -18 -36 -63 -44 -55 -3 3 -3 20 0 37 5 22 12 32 25 32 11 0 19
-6 19 -14z m-2850 -37 c0 -24 -4 -38 -10 -34 -17 10 -11 75 7 75 2 0 3 -18 3
-41z m2577 -6 c-3 -10 -5 -4 -5 12 0 17 2 24 5 18 2 -7 2 -21 0 -30z m641 -20
c-4 -22 -22 -20 -26 1 -2 10 3 16 13 16 10 0 15 -7 13 -17z m-651 -65 c-2 -13
-4 -5 -4 17 -1 22 1 32 4 23 2 -10 2 -28 0 -40z m-1157 -910 c6 -24 13 -50 16
-58 3 -8 10 -164 15 -347 10 -374 8 -384 -67 -523 l-35 -65 6 75 c3 41 18 167
32 280 29 220 36 534 16 633 -13 58 2 63 17 5z m-284 -245 c-11 -11 -19 6 -11
24 8 17 8 17 12 0 3 -10 2 -21 -1 -24z m2015 -33 c-1 -61 -26 -122 -71 -173
-36 -42 -54 -48 -45 -14 10 33 109 245 114 241 2 -2 3 -26 2 -54z m-2226 -209
c7 -32 -52 -222 -70 -228 -19 -6 2 164 26 213 24 51 35 55 44 15z m665 15 c0
-2 -7 -9 -15 -16 -13 -11 -14 -10 -9 4 5 14 24 23 24 12z m200 -8 c0 -7 -7
-22 -15 -32 -16 -21 -18 -15 -9 22 7 23 24 31 24 10z m1201 -71 c-17 -17 -24
-1 -10 25 12 21 14 21 17 4 2 -10 -1 -23 -7 -29z m-1145 -62 c10 -67 0 -163
-18 -181 -14 -14 -16 -11 -22 30 -8 49 11 196 25 196 4 0 11 -20 15 -45z m102
-51 c7 -25 10 -50 7 -55 -9 -14 -27 -11 -22 4 2 6 -4 29 -15 50 -10 21 -16 42
-13 47 12 19 31 -2 43 -46z m-94 -220 c10 -26 -5 -39 -21 -19 -7 11 -13 22
-13 27 0 15 28 8 34 -8z m816 -230 c0 -22 -2 -25 -15 -14 -8 7 -15 19 -15 26
0 8 7 14 15 14 10 0 15 -10 15 -26z m-930 -259 c0 -7 3 -22 6 -32 4 -12 -2 -9
-20 10 -15 16 -24 32 -21 37 8 13 35 1 35 -15z m-204 -460 c7 -19 14 -37 14
-40 0 -11 -26 -3 -48 15 -20 16 -21 22 -10 39 18 29 27 26 44 -14z m375 -776
c27 -13 50 -18 68 -14 37 8 57 -16 77 -95 9 -36 20 -72 24 -80 5 -9 41 -26 82
-39 79 -25 138 -63 138 -88 0 -9 -10 -31 -21 -50 -25 -40 -20 -51 13 -29 26
17 38 13 38 -14 0 -9 11 -31 25 -50 38 -52 33 -67 -25 -79 -58 -12 -200 -15
-200 -3 0 4 19 19 43 34 57 36 97 78 74 78 -9 0 -32 -13 -50 -30 -31 -27 -42
-30 -99 -30 -64 0 -65 1 -98 41 -31 39 -33 47 -31 106 2 45 -2 72 -14 89 -20
31 -30 30 -72 -6 -64 -57 -90 -37 -127 97 -31 109 -30 101 -9 99 9 0 29 17 45
42 34 49 57 53 119 21z"/>
<path d="M4845 7829 c-50 -29 -83 -72 -100 -129 -5 -21 0 -17 34 20 l42 45
-35 -55 c-23 -37 -40 -54 -53 -53 -14 1 -27 -21 -62 -103 -62 -150 -112 -294
-102 -294 16 0 30 26 41 75 16 73 37 115 132 265 87 137 114 173 157 203 14 9
23 19 20 21 -11 12 -56 15 -74 5z"/>
<path d="M4957 7798 c-9 -5 -17 -17 -17 -27 0 -9 -13 -27 -28 -38 -31 -23 -95
-140 -132 -241 -12 -34 -31 -67 -40 -72 -10 -5 -20 -20 -23 -32 -53 -235 -56
-267 -27 -293 20 -18 20 -17 20 56 0 194 94 402 263 585 l65 70 -32 1 c-18 1
-40 -3 -49 -9z m33 -13 c-7 -8 -18 -15 -24 -15 -6 0 -2 7 8 15 25 19 32 19 16
0z"/>
<path d="M5358 7768 c12 -12 24 -19 28 -15 10 10 -16 37 -34 37 -13 0 -12 -4
6 -22z"/>
<path d="M5047 7750 c-36 -29 -62 -74 -101 -178 -31 -83 -32 -91 -15 -95 17
-5 17 -7 -2 -67 -10 -34 -19 -71 -19 -81 0 -11 -7 -22 -15 -25 -17 -7 -35 -64
-35 -109 l1 -30 18 22 c25 30 81 165 88 212 3 20 16 50 29 68 13 17 24 36 24
42 0 19 -20 12 -29 -11 -7 -19 -8 -19 -14 -4 -4 10 -11 14 -17 11 -14 -9 -13
-4 10 59 12 30 27 60 35 66 20 16 19 13 -10 -44 -14 -27 -23 -51 -20 -54 11
-12 35 10 35 32 0 19 11 31 45 51 53 32 105 88 105 115 0 16 -7 20 -35 20 -28
0 -37 -5 -50 -29 -8 -17 -20 -33 -26 -37 -13 -8 -8 4 23 48 30 44 19 52 -25
18z"/>
<path d="M6473 7693 c-25 -5 -29 -23 -13 -53 8 -14 3 -29 -19 -67 -38 -61 -51
-136 -51 -282 0 -107 -10 -203 -26 -253 -5 -15 -2 -19 12 -16 10 2 21 14 24
28 7 31 16 18 25 -40 4 -25 11 -50 16 -56 6 -7 5 -31 -2 -60 -6 -27 -14 -150
-19 -273 -4 -122 -12 -226 -17 -230 -4 -4 -20 -12 -35 -19 -25 -10 -27 -9 -33
18 -10 43 22 309 47 393 8 27 8 41 1 48 -18 18 -31 -20 -42 -127 -12 -111 -22
-147 -75 -251 -53 -104 -67 -155 -73 -279 -11 -212 30 -331 151 -448 78 -75
126 -138 126 -165 0 -12 -5 -11 -18 7 l-17 22 -43 -20 c-23 -11 -42 -27 -42
-35 0 -8 20 -37 45 -65 25 -28 45 -53 45 -55 0 -3 -25 9 -55 26 -30 17 -62 29
-72 27 -12 -3 9 -22 68 -60 48 -31 90 -61 94 -68 6 -9 9 -9 15 1 5 7 0 29 -11
51 -11 21 -15 38 -10 38 5 0 12 -9 16 -19 6 -21 33 -47 40 -39 10 10 -17 213
-32 245 -8 18 -53 67 -100 109 -53 48 -93 95 -109 126 -34 66 -76 226 -65 247
5 9 14 57 20 106 12 94 28 155 39 155 4 0 18 -9 32 -20 52 -41 90 -22 130 65
l14 30 5 -35 c6 -34 7 -35 50 -35 l44 0 26 73 c19 54 23 76 15 89 -20 31 -30
24 -33 -24 -2 -47 -28 -108 -46 -108 -17 0 -22 53 -14 150 6 66 5 113 -3 143
-9 36 -8 46 5 59 13 14 17 13 32 -10 9 -14 20 -47 23 -74 6 -39 11 -48 27 -48
13 0 26 -13 39 -39 18 -36 18 -46 7 -132 -11 -86 -11 -99 9 -168 l21 -75 -21
-118 c-14 -78 -19 -135 -14 -168 13 -101 83 -205 138 -205 17 0 27 -10 38 -38
9 -24 24 -41 37 -45 11 -3 21 -2 21 2 0 30 -35 112 -59 141 l-30 35 -1 -32 c0
-18 -4 -33 -8 -33 -7 0 -68 76 -87 109 -22 39 -23 89 -3 191 16 82 19 125 14
195 -4 50 -9 127 -13 171 -3 50 -1 95 6 116 11 33 9 39 -49 133 -33 55 -60
109 -60 121 0 12 -13 38 -30 59 -16 21 -30 42 -30 47 0 19 -23 -6 -37 -41 -24
-55 -26 -23 -3 44 23 68 25 108 6 124 -8 6 -19 31 -25 56 -6 24 -14 46 -19 49
-4 2 -7 88 -6 191 l1 186 49 96 c27 53 51 100 52 105 4 8 -16 9 -55 1z"/>
<path d="M3862 7678 c-16 -16 -15 -28 2 -28 16 0 29 27 17 34 -4 3 -13 0 -19
-6z"/>
<path d="M3736 7645 c-3 -8 -1 -15 4 -15 13 0 22 18 11 24 -5 3 -11 -1 -15 -9z"/>
<path d="M3326 7565 c-48 -66 -72 -123 -58 -137 5 -5 21 15 37 43 15 29 44 70
63 91 31 34 33 41 21 54 -13 12 -21 6 -63 -51z"/>
<path d="M5031 7562 c-14 -26 -7 -42 10 -25 6 6 9 19 7 29 -3 17 -5 17 -17 -4z"/>
<path d="M5266 7528 c-20 -39 -23 -54 -13 -60 17 -11 24 -10 41 8 17 17 23
104 7 104 -5 0 -21 -23 -35 -52z"/>
<path d="M6466 7384 c-3 -9 -3 -20 0 -25 9 -15 34 10 27 27 -7 19 -19 18 -27
-2z"/>
<path d="M6485 7328 c-4 -10 -4 -26 0 -35 8 -17 8 -17 12 0 3 9 3 25 0 35 -4
16 -4 16 -12 0z"/>
<path d="M5514 7214 c-12 -41 -15 -76 -10 -123 10 -110 23 -91 31 44 4 69 5
129 2 132 -3 3 -13 -21 -23 -53z"/>
<path d="M6500 7229 c0 -19 7 -44 15 -55 15 -18 15 -16 9 26 -8 57 -24 76 -24
29z"/>
<path d="M8300 7133 c0 -33 32 -196 45 -225 37 -90 49 -19 15 90 -25 81 -25
95 1 54 12 -18 52 -51 90 -73 38 -23 72 -46 75 -51 8 -12 -9 -24 -145 -105
-139 -82 -191 -136 -191 -197 0 -68 -47 -151 -146 -258 -71 -76 -120 -143
-130 -175 0 -2 -15 1 -32 7 -39 11 -125 -9 -184 -43 -37 -20 -38 -22 -19 -31
15 -6 31 -4 54 6 39 19 139 49 145 43 2 -2 10 -38 17 -80 8 -42 20 -87 29 -99
18 -29 86 -42 119 -24 12 6 51 23 87 36 36 13 83 30 104 38 32 12 53 13 108 4
78 -12 107 -4 193 55 28 19 63 37 79 41 l30 7 -21 -29 c-12 -16 -46 -60 -77
-99 -59 -73 -121 -185 -114 -206 2 -7 13 0 27 17 44 57 189 281 216 334 15 30
50 77 78 105 28 28 73 91 102 145 l52 95 119 18 c65 10 171 21 234 25 l115 7
-32 18 c-48 26 -136 22 -268 -13 -119 -30 -131 -30 -178 4 l-27 20 -33 -32
c-42 -41 -83 -53 -161 -45 -59 5 -62 4 -74 -21 -16 -37 -67 -66 -100 -57 -40
11 -36 26 8 26 49 0 58 19 10 23 -19 2 -39 8 -45 14 -7 7 9 9 53 4 34 -3 62
-2 62 3 0 20 -41 42 -81 44 -39 2 -45 -1 -58 -27 -7 -17 -18 -71 -23 -120 -14
-141 -21 -159 -82 -207 -30 -23 -64 -59 -75 -80 -47 -84 -254 -127 -276 -58
-8 24 11 49 37 49 24 0 58 18 58 30 0 6 -12 10 -27 10 -26 0 -43 -9 -107 -54
-15 -10 -28 -17 -30 -15 -3 2 -1 23 4 47 9 50 30 80 30 44 0 -43 18 -21 22 28
4 37 14 61 35 88 34 42 97 82 131 82 30 0 56 -45 71 -120 l12 -58 31 9 c40 11
75 44 96 89 11 26 15 65 14 149 l-1 113 46 49 c82 88 206 126 307 95 27 -8 52
-14 55 -12 3 2 30 11 59 20 51 15 53 15 50 -4 -4 -24 5 -25 39 -3 20 13 47 18
103 17 63 0 91 -7 183 -42 59 -23 115 -42 125 -42 31 1 -122 90 -192 111 -49
16 -83 20 -122 16 l-54 -6 0 40 c0 22 -7 54 -16 71 -16 30 -17 30 -67 23 -102
-15 -110 -13 -119 22 -17 65 -102 94 -172 58 -15 -8 -32 -15 -36 -15 -5 0 -48
34 -97 74 -87 74 -163 125 -163 109z m75 -380 c-9 -21 -42 -71 -73 -111 -31
-40 -64 -84 -72 -97 -28 -46 -42 -22 -15 25 8 14 14 44 15 68 0 39 4 45 47 75
25 17 58 42 72 54 37 32 43 28 26 -14z m-410 -724 c12 -19 -5 -23 -22 -6 -16
16 -16 17 -1 17 9 0 20 -5 23 -11z"/>
<path d="M6530 7105 c0 -14 6 -25 13 -25 21 0 27 11 16 31 -14 27 -29 23 -29
-6z"/>
<path d="M5466 6974 c-9 -24 -7 -77 4 -94 7 -11 10 3 10 48 0 63 -3 74 -14 46z"/>
<path d="M306 6878 c-20 -29 -21 -59 -2 -52 12 4 36 53 36 70 0 12 -21 1 -34
-18z"/>
<path d="M5470 6800 c0 -22 4 -40 9 -40 14 0 23 37 16 60 -11 34 -25 22 -25
-20z"/>
<path d="M122 6747 c-15 -40 -15 -57 -2 -57 14 0 42 59 36 76 -9 23 -21 16
-34 -19z"/>
<path d="M5505 6670 c3 -5 8 -10 11 -10 2 0 4 5 4 10 0 6 -5 10 -11 10 -5 0
-7 -4 -4 -10z"/>
<path d="M5584 6608 c11 -88 52 -232 97 -338 78 -182 68 -127 -38 210 -30 96
-57 177 -60 180 -3 3 -2 -21 1 -52z"/>
<path d="M8522 6619 c-30 -11 -19 -29 19 -29 18 0 29 5 29 14 0 19 -20 25 -48
15z"/>
<path d="M9630 6394 c-14 -35 -13 -56 6 -127 14 -56 14 -61 -1 -70 -9 -5 -32
-22 -50 -39 -19 -16 -46 -33 -61 -37 -21 -5 -28 -14 -30 -38 -7 -62 -22 -79
-143 -162 -127 -88 -177 -135 -211 -200 -25 -50 -25 -66 1 -134 l21 -56 69
-11 c37 -6 77 -9 89 -5 16 5 20 2 20 -18 0 -14 6 -27 14 -30 20 -8 38 17 34
44 -2 12 2 24 8 26 7 2 14 -16 18 -46 3 -27 13 -55 21 -61 19 -15 16 -18 48
53 l26 57 54 0 c153 0 278 -55 324 -145 27 -50 31 -91 18 -156 -13 -60 -13
-62 11 -86 36 -35 53 -25 71 42 6 24 9 14 11 -46 3 -69 5 -77 25 -83 12 -3 26
-1 31 4 7 7 4 10 -7 10 -14 0 -17 10 -17 58 0 32 -7 83 -16 113 -14 47 -18 51
-25 32 -5 -13 -13 -23 -18 -23 -15 0 -45 140 -46 211 l0 66 105 110 c80 83
108 107 117 98 6 -7 25 -17 41 -24 23 -10 36 -26 53 -69 38 -98 79 -168 107
-184 40 -24 93 -30 121 -16 38 20 36 35 -3 30 -45 -5 -107 29 -140 77 -29 42
-59 111 -52 118 4 5 122 -17 172 -32 20 -6 23 -2 29 42 12 87 -23 138 -140
205 -120 69 -134 80 -125 98 5 10 4 34 -2 59 -8 32 -8 52 0 75 35 97 -15 160
-123 155 -61 -3 -72 4 -116 68 -26 38 -35 43 -68 43 -24 0 -53 -10 -84 -30
l-47 -30 -45 45 c-51 51 -81 57 -95 19z m246 -128 c17 -18 18 -38 2 -54 -8 -8
-9 -15 -2 -22 7 -7 30 -3 68 11 32 11 68 19 80 17 19 -3 15 -9 -30 -55 -39
-41 -60 -54 -92 -59 -31 -5 -42 -11 -44 -27 -2 -16 -17 -23 -77 -37 -40 -10
-94 -28 -120 -40 -47 -22 -47 -22 -47 -70 1 -41 -5 -57 -47 -117 l-48 -70 -45
5 c-52 6 -96 -11 -127 -48 -25 -29 -72 -46 -82 -30 -4 6 -17 4 -35 -5 -39 -20
-57 -19 -70 5 -7 14 -7 20 0 20 5 0 10 -5 10 -12 0 -6 9 -2 21 11 12 12 27 20
35 17 21 -8 26 11 8 29 -16 15 -14 20 27 62 24 24 73 65 109 91 89 62 158 130
165 162 9 40 92 114 166 149 36 17 76 42 89 56 26 28 64 33 86 11z m-113 -373
c10 -10 -34 -53 -54 -53 -15 0 -29 19 -29 40 0 14 72 25 83 13z m294 -79 c-11
-108 -92 -195 -215 -230 -62 -18 -183 -23 -257 -10 l-50 9 85 14 c168 27 258
90 354 246 13 21 24 27 53 27 l36 0 -6 -56z m-314 10 c11 -4 13 -13 7 -40 -19
-82 -68 -114 -209 -135 -76 -12 -84 -11 -93 4 -7 14 -17 16 -45 11 -24 -4 -34
-3 -30 3 4 6 22 14 41 17 19 4 40 13 46 22 11 13 15 13 31 -2 16 -14 23 -15
49 -4 17 7 41 25 53 40 13 15 39 33 59 39 20 6 44 21 53 31 20 23 18 22 38 14z
m604 -65 c30 -11 43 -26 43 -48 0 -11 -12 -12 -57 -7 -57 7 -123 32 -123 46 0
18 96 25 137 9z m-392 -537 c0 -73 -20 -67 -23 8 -2 52 -1 63 10 52 6 -6 12
-33 13 -60z"/>
<path d="M7456 6363 c-31 -105 8 -239 74 -256 28 -7 25 9 -15 73 -32 49 -35
61 -35 127 0 68 -12 96 -24 56z"/>
<path d="M7410 6334 c0 -8 5 -12 10 -9 6 3 10 10 10 16 0 5 -4 9 -10 9 -5 0
-10 -7 -10 -16z"/>
<path d="M7392 6268 c6 -18 28 -21 28 -4 0 9 -7 16 -16 16 -9 0 -14 -5 -12
-12z"/>
<path d="M7382 6228 c2 -12 11 -24 21 -26 24 -5 22 25 -4 38 -18 10 -20 9 -17
-12z"/>
<path d="M7376 6176 c8 -22 36 -30 32 -9 -2 10 -11 19 -21 21 -12 2 -15 -1
-11 -12z"/>
<path d="M7400 6101 c0 -12 5 -21 10 -21 6 0 10 6 10 14 0 8 -4 18 -10 21 -5
3 -10 -3 -10 -14z"/>
<path d="M7587 6114 c-18 -18 -4 -30 38 -32 37 -1 66 11 54 23 -9 7 -85 15
-92 9z"/>
<path d="M6773 6018 c-18 -115 4 -179 26 -78 14 65 13 99 -2 128 -12 21 -14
17 -24 -50z"/>
<path d="M7432 6018 c3 -7 15 -15 27 -16 16 -3 22 1 19 10 -3 7 -15 15 -27 16
-16 3 -22 -1 -19 -10z"/>
<path d="M7504 5993 c-39 -93 -55 -188 -61 -353 -5 -157 -4 -164 12 -148 15
14 18 38 20 150 3 110 8 153 34 253 35 135 35 135 21 135 -5 0 -17 -17 -26
-37z"/>
<path d="M8286 5995 c-3 -9 -6 -50 -6 -91 0 -71 -1 -75 -26 -84 -14 -6 -41
-10 -61 -10 -23 0 -48 -9 -67 -24 -79 -60 -192 -99 -321 -112 -65 -6 -75 -11
-133 -58 -53 -42 -62 -54 -57 -74 3 -13 -3 -42 -15 -69 -32 -73 -7 -120 98
-183 100 -60 107 -67 93 -84 -15 -17 -6 -25 59 -46 34 -11 49 -23 60 -47 8
-18 21 -31 28 -28 14 5 15 3 3 -27 -9 -23 -51 -214 -51 -230 0 -4 34 -8 76 -8
41 0 84 -5 95 -10 15 -8 19 -7 19 3 0 38 116 131 179 143 44 9 51 -15 49 -164
-1 -110 1 -133 17 -160 34 -56 74 -52 75 8 0 15 5 31 11 37 15 15 32 -6 85
-107 35 -66 39 -80 32 -115 -4 -22 -12 -134 -18 -250 -5 -115 -13 -226 -16
-245 l-6 -35 -35 70 c-20 39 -37 72 -39 74 -3 3 -18 -3 -34 -13 -18 -10 -39
-15 -50 -11 -15 5 -20 2 -20 -13 0 -21 -35 -71 -43 -62 -2 3 1 55 9 115 16
137 17 209 3 258 -8 31 -7 47 5 78 18 45 21 111 5 140 -17 32 -28 12 -22 -40
7 -65 -10 -72 -32 -13 -27 71 -80 174 -105 202 -18 20 -20 21 -14 5 13 -37 16
-233 5 -332 -17 -145 -15 -309 3 -362 9 -24 16 -44 16 -45 0 -1 -22 19 -50 46
-27 26 -56 48 -62 48 -7 0 -22 -15 -32 -33 -19 -30 -20 -31 -24 -9 -5 29 -32
29 -32 -1 0 -13 -6 -32 -14 -42 -16 -22 -16 -22 -37 200 -5 61 -17 162 -25
225 -7 63 -14 134 -14 156 0 25 -6 47 -15 54 -19 16 -19 20 0 -220 8 -102 15
-232 15 -290 0 -87 4 -113 21 -145 17 -34 19 -51 14 -113 -7 -72 -6 -76 35
-158 l42 -85 -4 -122 c-3 -90 -13 -163 -38 -275 -31 -137 -33 -156 -21 -185 8
-18 13 -59 12 -93 -2 -55 1 -65 38 -120 63 -94 65 -95 139 -76 59 16 63 19 78
60 12 31 14 48 7 65 -7 16 -6 28 4 44 17 25 14 75 -4 81 -9 2 -13 -8 -13 -31
0 -19 -5 -48 -11 -66 -9 -25 -16 -31 -41 -31 -33 0 -33 -1 -5 114 10 43 9 50
-7 62 -22 16 -16 54 15 85 26 26 39 17 39 -27 0 -19 5 -34 11 -34 16 0 4 128
-18 183 -10 25 -17 74 -18 122 -1 44 -3 135 -4 203 -2 107 0 128 18 165 18 37
21 62 21 168 0 68 -5 141 -11 163 -7 26 -7 42 0 49 6 6 8 48 4 111 -3 58 0
153 7 221 12 111 14 117 27 91 8 -14 25 -109 39 -209 26 -196 24 -275 -13
-351 -16 -34 -15 -37 10 -93 69 -157 100 -305 101 -488 0 -71 -6 -160 -13
-197 -12 -60 -11 -73 3 -108 18 -46 21 -96 6 -105 -12 -7 -4 -121 12 -173 25
-81 178 -84 206 -3 11 30 -1 55 -12 26 -11 -30 -26 -13 -46 54 -25 86 -25 106
2 133 20 20 22 20 35 3 7 -11 13 -42 13 -69 0 -66 15 -92 29 -53 15 39 14 71
-4 114 -8 19 -15 66 -15 102 0 44 -13 117 -36 212 -43 172 -43 236 2 339 27
61 28 73 29 215 2 207 16 516 25 539 5 16 16 3 55 -68 62 -115 86 -191 92
-301 3 -51 12 -99 19 -110 19 -26 18 -113 -2 -244 -19 -128 -14 -234 16 -313
12 -32 56 -108 98 -170 218 -323 225 -337 248 -493 8 -55 17 -107 20 -117 2
-9 9 -42 14 -73 6 -36 19 -70 37 -94 25 -32 28 -46 33 -136 5 -92 9 -108 49
-193 49 -107 70 -220 71 -383 0 -128 -18 -299 -34 -324 -7 -11 -20 -44 -29
-74 -15 -52 -15 -56 5 -84 28 -39 47 -22 30 26 -17 47 -15 56 14 98 15 22 26
53 27 73 1 33 4 36 64 63 61 27 63 29 58 58 -2 17 -16 136 -30 265 -14 129
-28 249 -31 267 -6 30 -4 33 17 33 13 0 38 14 56 32 39 38 38 46 22 -136 -13
-149 -1 -299 36 -451 26 -105 32 -184 15 -214 -5 -10 -32 -33 -60 -51 -73 -47
-78 -61 -35 -104 44 -45 47 -84 8 -121 -27 -24 -27 -25 -6 -25 12 0 29 10 37
22 20 28 20 104 2 138 -13 23 -12 25 14 37 38 15 57 55 76 153 13 72 13 83 -1
102 -9 14 -15 44 -15 80 0 50 -6 90 -26 186 -2 12 -1 22 4 22 14 0 67 -196 72
-270 0 -3 7 4 15 14 22 28 18 75 -10 154 -13 37 -31 111 -40 163 -14 90 -38
509 -29 518 2 3 10 -1 16 -7 19 -19 38 -14 38 9 0 27 -59 84 -96 93 -20 5 -35
2 -55 -13 l-27 -20 -6 24 c-4 14 -23 41 -44 62 l-37 37 -5 -39 -5 -40 -24 60
c-52 135 -51 228 2 252 20 9 25 21 30 65 4 29 20 94 37 143 32 94 37 138 25
242 -4 34 -4 75 0 90 6 25 11 18 51 -75 50 -114 56 -166 33 -296 -14 -84 -6
-168 27 -282 31 -108 90 -238 104 -229 17 11 11 41 -24 122 -58 133 -71 288
-31 378 l18 40 9 -32 c10 -37 11 -38 39 -20 17 10 23 9 39 -11 10 -13 22 -43
26 -67 4 -30 11 -45 21 -45 29 0 55 23 74 66 22 49 46 67 71 53 10 -5 36 -37
59 -70 42 -59 43 -60 58 -40 9 12 25 42 35 69 25 60 47 95 55 85 3 -4 15 -8
26 -8 16 0 21 -8 23 -43 4 -61 26 -48 32 19 3 30 9 53 14 52 13 -2 81 -135
117 -228 44 -114 61 -144 114 -202 25 -29 53 -72 61 -96 8 -25 30 -62 48 -83
46 -54 75 -115 102 -212 13 -46 32 -97 42 -115 20 -33 56 -209 73 -352 12
-109 -4 -231 -50 -374 -26 -81 -48 -131 -75 -165 -60 -79 -69 -102 -56 -142 7
-20 10 -68 9 -107 l-4 -72 50 -17 c30 -10 82 -17 132 -18 l81 0 57 52 57 52
-5 58 c-4 46 -2 58 9 58 24 0 87 36 115 67 35 37 52 92 44 145 -6 43 -5 43 35
62 66 30 74 76 39 223 -21 85 -21 96 -10 309 8 150 18 246 30 295 41 163 36
210 -41 373 -61 130 -73 199 -39 230 14 12 21 31 21 53 0 21 10 47 25 67 16
21 36 76 55 150 17 65 36 130 44 144 7 15 11 42 9 59 -4 28 1 39 32 70 34 34
39 46 52 128 29 178 34 197 48 192 17 -7 26 51 18 125 -5 50 -4 58 10 53 9 -4
28 7 51 29 19 20 42 36 51 36 18 0 19 12 4 27 -9 9 -2 19 24 42 39 34 74 108
83 173 7 50 -17 122 -38 116 -7 -3 -39 -37 -72 -77 -32 -40 -69 -79 -82 -87
-21 -14 -25 -14 -46 2 -40 31 -107 116 -169 215 -43 70 -68 100 -90 109 -42
18 -56 46 -34 70 19 21 13 40 -14 40 -9 0 -26 7 -37 15 -18 14 -18 15 11 39
26 21 28 25 13 31 -10 4 -32 2 -50 -4 -26 -9 -35 -8 -46 3 -13 13 -11 16 18
23 43 11 49 30 14 43 -21 8 -45 5 -115 -15 -81 -24 -103 -26 -264 -26 l-175 1
-51 -40 c-56 -44 -86 -55 -120 -45 -21 7 -21 11 -17 108 7 143 -6 258 -31 278
-16 13 -75 149 -140 324 -20 53 -1 -102 20 -170 22 -68 43 -100 58 -90 7 4 11
-11 11 -44 0 -45 3 -51 20 -51 20 0 20 -4 15 -151 -5 -170 -12 -189 -71 -189
-55 0 -169 28 -303 74 -135 46 -208 64 -279 68 -33 1 -41 5 -37 16 4 12 -4 14
-45 9 -48 -6 -50 -5 -50 18 0 19 -5 25 -22 25 -12 0 -30 7 -40 16 -16 16 -18
16 -24 0 -8 -20 -21 -20 -42 0 -15 15 -17 15 -25 -3 -4 -10 -17 -25 -28 -31
-56 -35 -255 128 -389 318 -147 207 -170 272 -170 476 0 73 -5 145 -10 159 -8
22 -6 32 15 59 51 67 68 201 32 250 -22 30 -104 -12 -177 -92 -33 -36 -60 -69
-60 -73 0 -12 -56 -10 -110 4 l-44 12 -1 82 c0 80 -15 124 -29 88z m319 -142
c34 -16 35 -19 35 -70 0 -29 -3 -53 -7 -53 -13 1 -125 28 -128 32 -7 8 41 108
52 108 7 0 28 -8 48 -17z m-188 -84 c34 -13 31 -49 -4 -49 -42 1 -202 26 -210
33 -3 4 9 14 28 22 35 16 138 13 186 -6z m-237 -39 c0 -5 -8 -13 -17 -18 -23
-12 -113 -25 -113 -17 0 10 83 45 108 45 12 0 22 -4 22 -10z m417 -35 c3 -9
-2 -24 -11 -34 -9 -10 -16 -27 -16 -40 0 -43 -65 -40 -94 4 -31 47 2 83 77 84
25 1 40 -4 44 -14z m-811 -107 c-6 -56 -11 -66 -41 -91 -42 -34 -44 -50 -10
-65 46 -21 113 -15 138 12 12 12 38 28 59 35 20 7 39 18 42 26 3 8 18 15 33
15 17 0 43 12 63 29 35 28 36 28 110 19 41 -5 93 -9 115 -9 22 0 61 -7 88 -15
45 -15 47 -17 47 -55 0 -44 -24 -74 -65 -85 -43 -11 -74 3 -83 38 -8 33 -32
51 -32 25 0 -8 7 -31 15 -50 13 -32 13 -37 -1 -51 -8 -9 -26 -16 -38 -16 -13
0 -37 -5 -54 -11 -40 -14 -63 -2 -128 67 -27 30 -56 54 -63 54 -7 0 -25 -13
-41 -30 -33 -35 -139 -75 -177 -66 -14 4 -36 14 -49 22 -28 19 -64 90 -64 127
0 24 2 25 35 20 29 -5 35 -2 35 12 0 9 -9 19 -20 22 -14 4 -17 10 -12 20 9 15
81 62 96 63 5 0 6 -28 2 -62z m-106 -197 c49 -42 49 -61 0 -41 -32 13 -60 45
-60 67 0 21 12 15 60 -26z m318 13 c30 -21 30 -48 0 -39 -26 8 -50 34 -42 46
7 13 17 11 42 -7z m269 -101 c44 -56 45 -59 33 -125 -6 -34 -13 -71 -16 -81
-8 -26 -177 -108 -228 -110 -39 -2 -41 -1 -50 36 -19 75 42 208 102 220 15 3
50 21 77 41 58 41 63 42 82 19z m2649 -1086 c9 -27 16 -32 47 -35 35 -3 37 -5
37 -38 0 -23 11 -48 35 -79 43 -57 55 -101 54 -195 -1 -41 -4 -65 -6 -52 -2
12 -8 22 -13 22 -11 0 -35 -44 -43 -80 -4 -18 -19 -32 -47 -44 -22 -9 -61 -42
-87 -71 -62 -72 -77 -78 -70 -25 5 38 3 41 -16 38 -14 -2 -28 -17 -40 -40 -9
-21 -22 -38 -28 -38 -16 0 -36 59 -44 130 -10 98 -11 100 -45 90 -27 -8 -30
-6 -30 16 0 13 6 56 12 95 l13 72 61 27 c59 27 74 43 74 80 0 12 10 20 33 24
66 13 76 32 62 121 -7 49 -7 49 11 32 11 -10 24 -32 30 -50z m-1144 -98 c10
-19 20 -38 22 -44 3 -5 10 -2 16 8 17 27 27 20 34 -24 7 -43 41 -119 54 -119
4 0 13 9 20 20 7 11 23 20 37 20 13 0 30 9 38 20 14 20 14 20 32 0 17 -18 20
-19 41 -5 30 20 64 19 64 0 0 -16 -46 -65 -60 -65 -16 0 -60 -135 -113 -347
-70 -280 -109 -380 -176 -450 -29 -31 -26 -36 17 -28 51 9 94 38 142 93 40 47
40 47 40 18 0 -25 3 -28 26 -23 20 4 24 1 18 -12 -5 -9 -10 -46 -12 -82 -3
-55 -8 -71 -28 -90 -20 -18 -24 -32 -24 -78 -1 -49 -2 -54 -14 -38 -7 9 -16
39 -20 66 -3 27 -13 54 -21 61 -14 11 -19 7 -16 -12 2 -17 -28 -7 -34 11 -3
11 -13 25 -21 32 -14 11 -18 10 -29 -4 -11 -15 -14 -16 -25 -2 -20 24 -44 19
-36 -7 14 -48 19 -138 8 -138 -7 0 -15 18 -18 40 -4 24 -12 40 -20 40 -11 0
-13 -8 -8 -27 4 -19 -6 -8 -31 32 -40 66 -64 95 -77 95 -11 0 -10 -37 3 -61 5
-11 8 -28 6 -37 -3 -13 -7 -9 -17 13 -8 17 -20 37 -28 46 -20 25 8 82 72 149
63 64 95 125 133 247 24 79 27 104 27 248 1 154 0 164 -31 264 -49 156 -42
273 9 170z m1429 -215 c34 -31 78 -63 97 -71 34 -14 34 -14 16 -35 -27 -29
-77 -54 -82 -39 -6 18 -58 41 -92 41 -26 0 -30 3 -25 19 3 10 6 46 8 79 1 34
5 62 8 62 4 0 35 -25 70 -56z m-111 -243 c0 -13 -26 -32 -33 -24 -14 13 -6 33
13 33 11 0 20 -4 20 -9z m-24 -81 c26 -10 26 -11 9 -30 -10 -11 -24 -20 -30
-20 -14 0 -27 38 -19 52 7 10 7 10 40 -2z m-153 -426 c7 -7 -14 -44 -25 -44
-5 0 -8 11 -8 25 0 23 18 34 33 19z m-2882 -82 c14 -38 7 -57 -21 -57 -15 0
-26 -6 -28 -17 -3 -14 3 -18 26 -18 34 0 42 -14 42 -70 0 -65 -36 -74 -91 -23
-24 22 -25 28 -16 54 9 22 8 42 -4 87 -15 56 -15 58 5 73 27 22 74 6 87 -29z
m2079 -48 c0 -21 -4 -33 -10 -29 -5 3 -10 19 -10 36 0 16 5 29 10 29 6 0 10
-16 10 -36z m-1676 -49 c-1 -77 -18 -185 -28 -182 -6 2 -11 20 -12 39 0 20
-10 47 -22 63 -24 31 -30 101 -10 107 7 3 26 2 43 -2 21 -4 30 -11 29 -25z
m2381 -222 c4 -17 1 -31 -9 -41 -16 -16 -17 -16 -30 67 -6 33 -6 34 13 17 11
-10 22 -29 26 -43z m273 -260 c59 -165 64 -232 30 -353 -29 -105 -37 -416 -14
-553 26 -156 19 -209 -32 -243 -29 -19 -41 -10 -51 38 -10 49 -25 36 -37 -34
-7 -39 -18 -66 -30 -75 -17 -12 -21 -11 -41 12 -30 34 -29 54 8 145 40 99 46
186 24 310 -32 175 -32 204 9 321 45 130 48 197 11 245 -30 40 -31 44 -4 44
12 0 37 -17 58 -40 42 -46 51 -49 51 -17 0 19 -31 198 -45 265 -4 17 -1 22 13
22 15 0 26 -19 50 -87z m-265 -21 c14 -46 32 -77 73 -122 71 -80 73 -109 22
-275 -29 -91 -32 -113 -33 -250 -2 -111 -7 -162 -19 -194 -21 -58 -23 -317 -2
-346 10 -13 12 -36 9 -76 -4 -37 -2 -59 6 -63 20 -12 41 14 41 50 0 29 3 34
24 34 27 0 56 33 56 63 0 35 18 7 25 -38 7 -50 -1 -105 -16 -105 -5 0 -9 14
-9 30 0 45 -17 36 -25 -12 -4 -24 -11 -51 -17 -61 -11 -20 -44 -23 -55 -3 -15
26 -46 23 -53 -4 -4 -15 -14 -26 -25 -26 -11 -1 -28 -2 -37 -3 -15 -1 -14 -9
9 -76 25 -73 26 -77 10 -110 -20 -41 -40 -44 -98 -14 -60 30 -129 98 -151 147
l-20 44 26 36 c15 20 38 52 51 71 14 19 25 45 25 58 0 13 15 54 34 91 74 147
81 234 42 498 -25 162 -59 312 -95 417 -23 65 -13 75 20 20 39 -66 59 -84 81
-72 11 6 24 24 30 40 7 19 19 31 36 35 53 11 53 10 27 66 -33 74 -48 142 -41
183 10 51 28 39 49 -33z m94 -890 c-5 -48 -13 -94 -18 -102 -13 -22 -11 74 3
188 12 91 13 94 18 49 3 -26 2 -87 -3 -135z m-67 -554 c0 -13 3 -34 6 -48 4
-20 1 -18 -15 10 -24 42 -26 60 -6 60 9 0 15 -9 15 -22z"/>
<path d="M8060 5492 c0 -5 7 -13 16 -16 10 -4 14 -1 12 6 -5 15 -28 23 -28 10z"/>
<path d="M5919 5775 c5 -11 38 -59 73 -106 71 -95 98 -147 80 -158 -13 -8 32
-151 71 -228 52 -102 128 -162 205 -163 50 0 39 23 -24 50 -31 13 -72 37 -91
53 -35 31 -69 85 -59 94 3 3 33 -15 67 -41 33 -25 67 -46 75 -46 20 0 17 27
-7 67 -37 59 -8 54 72 -13 24 -20 45 -31 47 -25 7 22 -20 81 -59 125 -52 59
-81 62 -39 4 17 -22 28 -43 26 -45 -2 -2 -19 5 -37 16 -68 42 -108 12 -54 -39
38 -36 30 -45 -13 -13 -89 66 -91 69 -115 151 -13 44 -39 106 -58 137 -34 56
-179 219 -160 180z m201 -339 c-1 -17 -2 -18 -9 -6 -5 8 -12 26 -15 40 -7 24
-6 24 8 6 9 -11 16 -29 16 -40z"/>
<path d="M12027 5702 c-17 -18 -15 -20 41 -41 33 -11 62 -21 66 -21 11 0 6 18
-13 41 -16 20 -21 21 -35 10 -16 -13 -17 -12 -20 11 -2 19 -22 19 -39 0z"/>
<path d="M12666 5705 c-3 -9 -6 -33 -6 -53 0 -29 5 -40 22 -47 14 -6 28 -30
40 -64 l18 -55 -22 -24 c-21 -22 -21 -24 -4 -21 10 2 32 20 48 40 28 34 29 39
15 60 -8 13 -18 38 -21 54 -23 99 -27 110 -39 90 -10 -19 -11 -19 -17 4 -7 30
-25 38 -34 16z"/>
<path d="M11840 5685 c-11 -13 -9 -15 13 -15 13 0 30 7 37 15 11 13 9 15 -13
15 -13 0 -30 -7 -37 -15z"/>
<path d="M11720 5674 c-46 -9 -71 -21 -87 -39 -33 -38 -28 -46 14 -24 21 10
48 19 60 19 31 0 85 23 102 43 12 15 11 17 -5 16 -11 0 -48 -7 -84 -15z"/>
<path d="M11920 5680 c0 -5 9 -10 21 -10 11 0 17 5 14 10 -3 6 -13 10 -21 10
-8 0 -14 -4 -14 -10z"/>
<path d="M11511 5609 c-29 -12 -55 -18 -72 -14 -35 8 -81 -15 -108 -54 -25
-35 -26 -41 -4 -41 9 0 31 14 49 31 29 28 39 31 105 34 62 3 76 7 91 27 10 13
18 26 18 31 0 13 -34 7 -79 -14z"/>
<path d="M12151 5621 c-10 -7 -6 -14 18 -32 17 -12 73 -73 125 -134 59 -70
117 -127 152 -150 l58 -39 62 68 c71 76 101 131 113 205 11 73 -7 60 -34 -22
-23 -73 -55 -114 -124 -158 -53 -34 -59 -35 -69 -10 -8 21 -178 181 -193 181
-5 0 -9 7 -9 16 0 17 -62 84 -76 84 -5 0 -15 -4 -23 -9z"/>
<path d="M10531 5543 c-12 -43 -1 -62 23 -38 20 20 21 49 2 64 -12 10 -17 6
-25 -26z"/>
<path d="M10766 5566 c-21 -8 -44 -20 -50 -27 -8 -9 -6 -10 9 -5 11 4 76 2
146 -5 88 -9 137 -10 160 -2 l34 10 -55 17 c-75 25 -194 30 -244 12z"/>
<path d="M10586 5563 c-3 -3 -6 -21 -6 -40 0 -23 5 -33 15 -33 10 0 15 10 15
34 0 34 -11 52 -24 39z"/>
<path d="M11195 5539 c-43 -10 -47 -11 -85 -7 -16 2 -25 -2 -25 -12 0 -33 134
-36 183 -4 48 31 13 42 -73 23z"/>
<path d="M10630 5526 c0 -18 31 -29 44 -16 8 8 7 14 -4 20 -22 14 -40 12 -40
-4z"/>
<path d="M11960 5475 c-7 -8 -10 -27 -7 -42 4 -16 9 -43 13 -62 l7 -34 -31 19
c-16 10 -58 43 -92 72 -33 28 -66 52 -73 52 -7 0 -13 -12 -14 -27 -1 -20 -32
-103 -49 -131 -1 -2 -34 10 -73 27 -115 51 -191 58 -191 17 0 -6 -5 -18 -10
-26 -8 -12 -17 -8 -52 27 -56 54 -80 58 -89 16 -14 -70 -41 -77 -137 -36 -34
14 -65 23 -68 20 -14 -14 11 -49 52 -73 l44 -26 0 -75 c0 -42 7 -148 16 -237
18 -185 28 -212 109 -292 63 -63 107 -76 163 -49 23 10 38 13 40 6 2 -5 12
-21 23 -35 16 -20 29 -26 61 -26 31 0 45 -6 60 -25 26 -33 60 -50 133 -65 81
-17 134 -39 145 -61 6 -10 10 -38 10 -62 0 -31 6 -49 19 -61 29 -26 44 -11 37
35 -5 31 -3 38 11 41 14 3 18 14 18 58 0 54 0 55 30 55 25 0 30 3 27 23 -3 19
1 22 28 22 17 0 53 -12 80 -26 34 -18 58 -24 75 -20 14 4 25 2 25 -3 0 -5 16
-28 35 -51 19 -23 38 -52 41 -64 3 -12 17 -27 32 -34 15 -6 36 -25 47 -42 11
-16 27 -30 34 -30 8 0 32 -12 54 -27 30 -21 42 -24 55 -16 26 16 20 28 -15 31
-27 3 -33 8 -33 26 0 13 -19 52 -41 87 -25 37 -41 74 -40 89 1 14 5 106 10
205 6 111 15 201 25 235 9 30 16 69 16 87 0 25 8 38 35 60 28 23 35 36 40 78
7 51 -7 129 -25 140 -5 3 -19 3 -32 0 -21 -5 -23 -11 -20 -60 3 -35 0 -55 -7
-55 -6 0 -11 5 -11 11 0 11 -16 9 -52 -6 -14 -5 -18 -2 -18 12 0 19 -28 53
-43 53 -4 0 -7 -13 -7 -29 0 -16 -3 -36 -6 -45 -9 -25 -50 -19 -68 9 -23 35
-43 31 -63 -10 -29 -61 -47 -46 -60 48 -15 112 -47 192 -97 244 -51 53 -108
79 -126 58z"/>
<path d="M7446 5403 c27 -269 30 -290 43 -258 18 41 -2 303 -23 317 -23 16
-26 6 -20 -59z"/>
<path d="M6743 5430 c-79 -18 -117 -74 -135 -199 -11 -74 -14 -79 -46 -97 -48
-26 -87 -74 -133 -167 -23 -45 -48 -91 -56 -104 l-14 -22 -21 21 c-27 27 -71
44 -178 68 -50 11 -108 27 -127 35 -20 8 -37 15 -38 15 -9 0 -25 -70 -25 -112
0 -123 102 -209 295 -249 49 -10 104 -19 121 -19 27 0 34 -6 56 -52 14 -29 31
-79 38 -110 13 -55 12 -58 -19 -117 -17 -33 -31 -75 -31 -94 0 -53 -105 -217
-138 -217 -10 0 -34 -20 -55 -44 -21 -26 -60 -56 -92 -72 -69 -33 -89 -27
-141 46 -38 53 -54 62 -54 30 0 -17 -3 -18 -18 -9 -20 13 -72 5 -72 -10 0 -5
9 -19 20 -32 l19 -24 1 23 c0 12 3 22 6 22 3 0 26 -18 51 -39 56 -50 118 -71
204 -71 55 0 75 -5 106 -24 61 -39 84 -68 157 -202 39 -69 87 -149 109 -177
63 -84 89 -158 112 -309 18 -118 38 -170 77 -203 37 -31 45 -26 24 14 -9 17
-23 45 -32 62 -20 38 -9 52 16 19 27 -36 36 -17 12 25 -15 24 -20 45 -16 64 4
16 0 40 -9 58 -10 19 -12 34 -6 44 15 24 10 54 -18 115 -26 54 -28 69 -28 179
0 106 4 134 34 235 63 220 91 353 121 594 l20 151 42 35 c24 19 65 57 92 84
l50 50 90 1 c83 1 100 5 196 45 120 49 168 88 206 167 30 60 41 154 25 197
-11 28 -14 28 -60 23 -52 -6 -127 -40 -199 -89 -75 -52 -167 -90 -209 -86
l-38 3 -3 60 c-2 47 -8 65 -27 85 -31 33 -57 93 -90 210 -38 132 -57 166 -96
174 -35 7 -32 7 -76 -4z"/>
<path d="M12724 5395 c-16 -12 -17 -14 -2 -15 23 0 48 11 48 21 0 14 -24 11
-46 -6z"/>
<path d="M10430 5387 c0 -8 -3 -29 -6 -46 -5 -24 -3 -31 10 -31 12 0 16 10 16
39 0 22 -4 43 -10 46 -5 3 -10 0 -10 -8z"/>
<path d="M12582 5318 c3 -19 11 -22 56 -26 60 -4 67 8 18 32 -50 23 -78 21
-74 -6z"/>
<path d="M7510 5321 c0 -11 26 -22 34 -14 3 3 3 10 0 14 -7 12 -34 11 -34 0z"/>
<path d="M12753 5318 c21 -7 32 -7 40 1 8 8 0 11 -28 10 -40 -1 -40 -1 -12
-11z"/>
<path d="M2476 5258 c-16 -18 -39 -63 -51 -99 -31 -89 -43 -111 -155 -284
-133 -205 -157 -255 -184 -382 -13 -60 -13 -63 5 -63 14 0 21 -9 26 -30 14
-73 36 1 24 85 -4 34 -11 49 -20 47 -41 -9 55 173 136 256 25 26 67 92 103
164 34 66 64 117 67 114 3 -3 16 22 28 57 12 34 32 86 44 115 24 60 18 66 -23
20z"/>
<path d="M10444 5256 c-8 -32 -2 -69 12 -73 15 -5 26 40 18 72 -8 32 -22 32
-30 1z"/>
<path d="M12589 5244 c11 -21 29 -50 40 -64 l21 -25 0 58 c0 54 -1 57 -24 57
-13 0 -32 3 -41 6 -15 6 -14 2 4 -32z"/>
<path d="M7647 5169 c-4 -51 -3 -98 2 -107 11 -20 14 -14 30 65 12 57 6 107
-14 123 -9 8 -13 -11 -18 -81z"/>
<path d="M6040 5192 c0 -43 23 -98 48 -111 30 -16 37 -13 19 7 -10 10 -28 45
-42 78 -22 54 -24 56 -25 26z"/>
<path d="M6090 5205 c0 -62 128 -138 178 -106 9 5 -1 12 -31 20 -26 8 -66 32
-96 58 -36 32 -51 40 -51 28z"/>
<path d="M1835 5179 c-8 -23 -1 -34 14 -24 13 8 15 45 2 45 -5 0 -13 -9 -16
-21z"/>
<path d="M5980 5181 c0 -22 16 -36 24 -22 8 12 -3 41 -15 41 -5 0 -9 -9 -9
-19z"/>
<path d="M10448 5125 c-15 -40 -15 -55 2 -55 10 0 30 47 30 70 0 36 -16 29
-32 -15z"/>
<path d="M4659 5160 c-1 -3 -2 -85 -3 -182 -1 -151 -4 -179 -18 -190 -10 -8
-26 -60 -42 -140 -15 -71 -29 -135 -32 -143 -8 -20 6 -18 32 4 18 15 26 45 48
187 31 199 45 421 28 450 -6 10 -12 17 -13 14z"/>
<path d="M4600 5106 c0 -14 5 -26 10 -26 6 0 10 9 10 19 0 11 -4 23 -10 26 -6
4 -10 -5 -10 -19z"/>
<path d="M6046 5059 c9 -51 24 -87 40 -93 32 -12 7 82 -30 113 -14 12 -15 9
-10 -20z"/>
<path d="M10432 5002 c-19 -42 -15 -61 8 -33 21 24 26 46 12 55 -4 2 -13 -7
-20 -22z"/>
<path d="M7667 4960 c8 -29 25 -37 21 -9 -1 12 -8 24 -15 26 -7 3 -9 -3 -6
-17z"/>
<path d="M7727 4878 c6 -7 15 -26 21 -43 9 -26 11 -27 11 -7 1 28 -16 62 -31
62 -7 0 -7 -4 -1 -12z"/>
<path d="M7560 4850 c0 -11 5 -20 10 -20 6 0 10 9 10 20 0 11 -4 20 -10 20 -5
0 -10 -9 -10 -20z"/>
<path d="M7795 4839 c-3 -8 -6 -32 -8 -54 -1 -30 2 -40 13 -40 11 0 16 13 18
44 3 44 -12 78 -23 50z"/>
<path d="M10405 4778 c-8 -20 -10 -34 -4 -36 19 -7 37 7 47 37 10 28 9 31 -9
31 -13 0 -25 -11 -34 -32z"/>
<path d="M4064 4769 c-10 -17 11 -31 42 -27 18 2 30 10 32 21 3 13 -4 17 -32
17 -19 0 -38 -5 -42 -11z"/>
<path d="M7560 4749 c0 -11 5 -17 10 -14 6 3 10 13 10 21 0 8 -4 14 -10 14 -5
0 -10 -9 -10 -21z"/>
<path d="M2432 4739 c1 -12 9 -24 16 -27 9 -3 13 3 10 19 -1 12 -9 24 -16 27
-9 3 -13 -3 -10 -19z"/>
<path d="M8064 4747 c-6 -16 24 -82 33 -73 8 8 -6 74 -17 81 -6 4 -13 0 -16
-8z"/>
<path d="M5670 4735 c0 -4 5 -15 11 -26 5 -11 16 -84 24 -163 14 -147 28 -221
45 -231 13 -8 12 -2 -5 70 -17 71 -19 131 -5 140 6 4 10 -6 10 -22 0 -27 56
-130 65 -121 3 3 -11 51 -30 108 -19 57 -35 114 -35 127 0 12 -9 27 -19 33
-11 5 -25 26 -31 45 -10 30 -30 57 -30 40z"/>
<path d="M10416 4723 c-3 -3 -6 -21 -6 -38 0 -29 3 -32 25 -27 18 3 25 11 25
28 0 23 -31 49 -44 37z"/>
<path d="M7554 4687 c-13 -34 -10 -82 6 -82 10 0 16 12 18 39 4 42 -13 71 -24
43z"/>
<path d="M5860 4656 c0 -8 5 -18 10 -21 6 -3 10 3 10 14 0 12 -4 21 -10 21 -5
0 -10 -6 -10 -14z"/>
<path d="M5934 4656 c-19 -14 -19 -15 0 -51 l20 -36 19 36 c28 56 7 84 -39 51z"/>
<path d="M5645 4590 c7 -39 17 -76 24 -83 14 -14 14 -11 -5 70 -21 92 -34 101
-19 13z"/>
<path d="M5790 4637 c0 -3 11 -37 24 -75 23 -68 63 -138 73 -128 8 7 -27 106
-53 153 -21 37 -44 63 -44 50z"/>
<path d="M5887 4563 c7 -49 20 -73 38 -73 16 0 10 21 -20 80 -21 40 -25 38
-18 -7z"/>
<path d="M7746 4541 c-20 -22 -80 -29 -91 -11 -13 21 -34 9 -40 -22 -9 -40
-40 -104 -56 -114 -9 -5 -11 12 -7 65 l5 72 -25 -23 c-60 -55 -62 -111 -11
-250 34 -94 64 -282 54 -347 -4 -25 -18 -93 -31 -151 l-23 -105 29 -48 c28
-45 29 -50 15 -70 -8 -12 -15 -43 -15 -69 0 -42 4 -50 35 -74 47 -36 112 -43
145 -16 22 18 24 28 28 115 2 52 -4 202 -13 333 -19 265 -16 381 15 492 24 85
24 93 5 68 -20 -26 -19 -12 0 18 22 34 30 117 13 139 -13 18 -14 17 -32 -2z
m-102 -833 c3 -13 6 -49 6 -81 0 -56 -1 -58 -22 -52 -56 17 -88 79 -68 130 8
20 16 25 44 25 26 0 35 -5 40 -22z m87 1 c7 -15 9 -49 4 -106 -5 -60 -3 -88 5
-98 10 -12 9 -16 -1 -19 -8 -3 -31 -10 -51 -16 -29 -9 -37 -17 -40 -38 -3 -24
-6 -21 -35 33 -23 45 -29 65 -22 78 15 27 48 21 60 -10 10 -26 12 -27 19 -8 4
11 10 45 14 75 17 140 23 153 47 109z"/>
<path d="M5678 4450 c-11 -38 -10 -56 3 -43 6 6 9 23 7 39 l-3 29 -7 -25z"/>
<path d="M4532 4428 c-14 -14 -16 -42 -2 -33 14 9 32 45 22 45 -4 0 -13 -5
-20 -12z"/>
<path d="M4566 4390 c-37 -35 -49 -40 -60 -31 -12 10 -17 7 -29 -16 -25 -48
-102 -123 -126 -123 -27 0 -61 -17 -61 -30 0 -15 38 -12 65 6 23 15 25 15 31
0 8 -21 2 -27 -38 -41 -36 -12 -49 -35 -20 -35 11 0 36 7 57 16 20 8 44 13 53
11 14 -3 14 -5 -3 -11 -11 -5 -32 -12 -47 -18 -33 -12 -37 -38 -7 -38 40 0 89
32 156 104 65 67 112 141 99 153 -3 4 -33 -20 -66 -51 -48 -46 -65 -57 -87
-54 -16 2 -28 8 -28 13 0 6 29 35 64 65 68 58 109 106 99 116 -4 3 -27 -13
-52 -36z"/>
<path d="M5409 4393 c-6 -15 -12 -75 -13 -133 -1 -118 16 -180 61 -221 29 -27
30 -33 -10 66 -23 59 -34 212 -19 267 12 45 -3 62 -19 21z"/>
<path d="M4723 4343 c-30 -29 -73 -101 -73 -125 0 -21 69 54 91 100 12 23 19
45 17 48 -3 2 -19 -8 -35 -23z"/>
<path d="M5660 4355 c0 -11 -6 -38 -12 -60 l-12 -40 -7 35 c-6 31 -6 30 -4 -9
2 -28 -3 -54 -12 -68 -15 -23 -16 -23 -29 -4 -8 10 -43 42 -79 70 -94 74 -85
36 14 -59 62 -60 81 -85 86 -114 6 -30 10 -34 21 -25 9 8 14 34 14 80 0 52 3
69 14 69 18 0 32 102 17 127 -10 17 -10 17 -11 -2z"/>
<path d="M4820 4253 c-30 -59 -61 -109 -69 -111 -10 -3 -8 6 7 30 12 20 22 40
22 47 0 19 -15 12 -25 -11 -6 -12 -26 -33 -45 -46 -20 -13 -38 -36 -43 -52 -5
-19 -27 -45 -63 -72 -31 -23 -51 -44 -44 -46 6 -2 29 10 50 27 21 17 48 31 59
31 18 0 19 -3 11 -26 -6 -14 -20 -35 -33 -46 l-22 -19 25 12 c43 21 115 104
154 178 39 75 90 211 78 211 -4 0 -32 -48 -62 -107z"/>
<path d="M1771 4324 c0 -11 3 -14 6 -6 3 7 2 16 -1 19 -3 4 -6 -2 -5 -13z"/>
<path d="M1774 4239 c16 -72 45 -258 52 -329 l7 -75 -46 54 c-40 46 -59 83
-92 179 -3 8 -11 12 -18 9 -8 -2 -12 -28 -11 -83 3 -184 11 -258 37 -319 14
-33 35 -107 47 -165 11 -58 36 -164 55 -235 65 -244 68 -272 69 -508 l1 -219
35 -31 c20 -18 57 -47 84 -65 l47 -33 -7 -123 -7 -123 36 -47 c20 -26 42 -65
49 -87 15 -51 77 -107 171 -154 57 -29 81 -35 132 -35 34 0 76 5 94 11 32 11
32 12 26 63 -3 28 -10 110 -15 181 -13 185 -17 196 -111 285 -48 45 -79 83
-79 95 0 39 -31 120 -106 277 -56 118 -78 176 -84 221 -5 34 -27 120 -49 191
-61 193 -64 219 -58 448 3 112 9 218 13 236 7 35 -10 46 -19 12 -8 -30 -25
-24 -32 13 -11 50 -60 139 -94 171 l-31 30 0 -25 c-1 -51 -28 11 -36 79 -8 84
-17 108 -45 123 -21 11 -22 10 -15 -22z m415 -1535 c46 -57 111 -191 111 -230
0 -29 10 -44 64 -97 74 -73 106 -129 113 -204 6 -59 -2 -73 -43 -73 -30 0 -38
13 -94 142 -28 62 -59 120 -70 130 -11 9 -20 29 -20 45 0 15 -9 48 -20 72 -11
24 -20 50 -20 58 0 13 -3 13 -15 3 -8 -7 -15 -28 -15 -46 0 -24 5 -34 15 -34
9 0 15 -9 15 -25 0 -35 24 -89 64 -145 61 -85 67 -104 70 -213 2 -78 8 -113
24 -149 20 -45 20 -48 4 -48 -33 0 -126 53 -169 97 -24 23 -43 46 -43 50 0 5
25 6 55 5 59 -4 105 15 105 43 0 19 -11 19 -54 -1 -33 -16 -37 -16 -95 6 -89
33 -120 94 -106 206 5 45 10 55 29 60 l23 5 -34 65 c-35 65 -56 84 -91 84 -30
0 -96 101 -87 132 25 83 143 103 214 36 l24 -22 -7 42 c-8 54 11 56 53 6z
m302 -656 c15 -27 25 -148 13 -148 -24 0 -55 35 -73 85 -29 77 -28 85 14 85
25 0 37 -6 46 -22z m-67 -133 c15 -23 15 -25 -1 -25 -12 0 -18 8 -19 25 -2 31
0 31 20 0z"/>
<path d="M2162 2595 c1 -19 5 -35 10 -35 11 0 10 57 -2 65 -5 3 -9 -9 -8 -30z"/>
<path d="M4705 4232 c-21 -23 -47 -42 -57 -42 -11 0 -48 -20 -82 -45 -35 -25
-69 -45 -75 -45 -6 0 -11 -5 -11 -11 0 -5 4 -8 9 -4 6 3 14 -2 19 -11 9 -16
15 -14 68 16 79 43 141 95 160 131 25 50 10 55 -31 11z"/>
<path d="M4902 4258 c-7 -7 -12 -22 -12 -35 0 -12 -13 -37 -29 -55 -46 -53
-171 -231 -166 -237 11 -11 62 39 92 90 17 30 43 69 58 87 27 32 81 150 73
158 -3 2 -10 -2 -16 -8z"/>
<path d="M11980 4236 c0 -8 7 -16 15 -20 9 -3 15 0 15 8 0 8 -7 16 -15 20 -9
3 -15 0 -15 -8z"/>
<path d="M11917 4224 c-14 -14 -7 -59 15 -94 18 -29 23 -32 26 -17 9 42 -23
129 -41 111z"/>
<path d="M11970 4175 c0 -43 32 -94 59 -95 14 0 38 -12 53 -27 25 -24 28 -25
28 -7 0 10 -12 37 -25 59 -14 22 -25 48 -25 58 0 24 -17 21 -23 -4 -7 -25 -24
-17 -37 17 -12 31 -30 31 -30 -1z"/>
<path d="M11710 4173 c0 -69 48 -153 87 -153 16 0 18 73 3 101 -18 32 -33 23
-26 -16 10 -50 -2 -43 -15 9 -6 25 -20 52 -30 62 -18 16 -19 16 -19 -3z"/>
<path d="M11856 4160 c-32 -39 -36 -85 -6 -75 19 6 20 2 20 -55 0 -51 5 -67
26 -95 15 -20 29 -56 34 -87 4 -29 22 -92 39 -140 67 -184 62 -423 -10 -574
-23 -50 -28 -68 -20 -83 8 -15 5 -32 -14 -73 -26 -55 -34 -158 -16 -188 16
-25 81 -14 164 27 l78 38 -6 53 -6 52 34 0 c61 0 63 9 42 213 -22 228 -18 367
13 418 14 23 27 72 37 140 9 57 20 117 25 133 8 24 7 33 -9 50 -10 12 -34 46
-53 77 -34 53 -80 99 -100 99 -12 0 12 -38 68 -111 23 -30 45 -64 48 -75 6
-19 3 -21 -19 -16 -19 3 -34 -3 -55 -23 -33 -32 -60 -28 -60 9 0 34 -16 41
-34 14 -19 -27 -40 -18 -71 30 -16 26 -25 31 -47 26 -45 -9 -63 31 -63 142 0
51 -3 95 -6 99 -4 3 -18 -8 -33 -25z"/>
<path d="M12570 4170 c10 -19 56 -38 66 -27 5 5 -57 47 -70 47 -4 0 -2 -9 4
-20z"/>
<path d="M11657 4123 c-10 -10 -8 -43 2 -43 9 0 21 24 21 41 0 11 -14 12 -23
2z"/>
<path d="M12637 4103 c-12 -12 -7 -21 15 -26 29 -8 42 1 27 19 -12 15 -31 18
-42 7z"/>
<path d="M4864 4073 c-6 -24 -105 -166 -123 -178 -4 -2 -33 8 -65 22 -34 14
-70 23 -85 20 -16 -3 -30 1 -38 11 -12 16 -14 16 -24 -1 -8 -13 -14 -15 -30
-7 -15 9 -21 7 -25 -5 -4 -8 -1 -22 6 -30 10 -12 6 -15 -28 -21 -29 -4 -39
-10 -35 -20 6 -17 43 -18 94 -2 36 10 55 38 27 38 -6 0 -8 3 -5 7 4 3 18 -4
32 -17 24 -23 26 -23 38 -5 13 17 15 17 41 0 19 -13 56 -20 119 -24 84 -5 92
-8 95 -27 3 -18 12 -23 54 -28 28 -4 53 -5 56 -2 8 9 -19 36 -37 36 -21 0 -41
19 -41 38 0 11 3 12 14 3 18 -15 44 -4 52 21 7 24 -2 36 -18 20 -22 -22 -32
-12 -11 11 30 32 44 63 37 82 -9 22 -30 3 -59 -54 -32 -64 -58 -86 -84 -71
-12 6 -21 13 -21 17 0 3 20 35 44 72 52 77 67 121 42 121 -9 0 -18 -12 -22
-27z"/>
<path d="M5364 4058 c9 -58 47 -137 82 -172 43 -43 124 -73 124 -46 0 15 -61
50 -87 50 -18 0 -30 15 -58 70 -19 38 -35 83 -35 99 0 17 -6 31 -16 35 -14 6
-16 1 -10 -36z"/>
<path d="M5670 4043 c0 -40 -16 -51 -24 -18 -9 37 -26 30 -26 -10 0 -29 6 -39
28 -52 30 -17 60 -75 42 -81 -22 -8 -25 -6 -25 12 0 11 -6 21 -14 24 -11 4
-12 -2 -7 -23 6 -24 5 -27 -11 -20 -40 16 -53 17 -53 3 0 -23 65 -39 175 -45
71 -3 113 0 145 10 37 12 41 16 25 21 -11 4 -32 13 -47 21 -23 11 -27 11 -32
-1 -4 -11 -10 -12 -25 -4 -28 14 -51 12 -51 -5 0 -8 -4 -15 -10 -15 -19 0 -43
51 -56 122 -15 79 -34 113 -34 61z"/>
<path d="M4046 4010 c-14 -17 -26 -36 -26 -42 0 -7 -5 -6 -14 1 -9 8 -16 8
-20 2 -4 -5 1 -14 10 -19 14 -8 14 -13 -1 -65 -12 -43 -21 -57 -35 -57 -27 0
-33 -16 -16 -42 23 -37 27 -63 16 -94 -10 -26 -13 -27 -21 -11 -19 33 -27 17
-12 -25 11 -31 12 -52 5 -74 -8 -27 -5 -36 20 -70 l29 -38 -23 -9 c-23 -8 -23
-9 7 -21 37 -16 71 -82 61 -120 -3 -14 -31 -62 -62 -107 -97 -142 -98 -143
-89 -358 5 -142 10 -190 22 -202 9 -11 16 -48 19 -110 5 -90 12 -118 21 -91 3
6 8 12 13 12 11 0 -3 -58 -24 -98 -16 -31 -16 -33 5 -61 14 -19 24 -54 30
-107 5 -43 14 -91 20 -106 16 -40 -6 -146 -49 -231 -25 -50 -58 -92 -115 -149
l-80 -78 6 -63 c3 -34 18 -100 33 -147 23 -75 27 -111 35 -300 12 -266 7 -353
-28 -450 -34 -98 -29 -122 32 -146 25 -9 48 -21 51 -25 3 -5 0 -27 -6 -49 -23
-86 47 -150 166 -150 77 0 127 24 134 65 8 43 -7 115 -30 147 -14 19 -20 43
-20 78 0 28 -4 60 -10 70 -39 74 -62 285 -49 451 9 114 19 149 44 149 8 0 33
19 55 43 l41 42 -2 -65 c-1 -40 6 -98 19 -150 29 -118 42 -278 42 -527 0 -116
4 -213 8 -215 4 -1 18 -18 31 -35 12 -18 31 -33 42 -33 24 0 25 0 -12 72 -35
68 -35 74 -27 305 4 125 6 133 32 168 16 20 39 41 52 47 23 11 29 7 69 -38
l44 -49 1 -90 c1 -171 28 -271 96 -349 72 -84 134 -170 134 -187 0 -31 -21
-66 -48 -78 -14 -7 -61 -19 -104 -27 l-78 -15 -40 33 c-22 18 -40 38 -40 44 0
6 9 37 20 69 27 79 26 109 -6 134 -61 48 -91 0 -34 -54 25 -24 28 -32 17 -40
-24 -18 -37 -53 -37 -102 0 -47 2 -49 55 -88 104 -77 197 -101 269 -71 33 14
34 16 29 54 -3 25 1 59 11 88 32 95 27 107 -93 239 -81 89 -92 121 -102 304
-5 86 -13 215 -17 286 -5 72 -8 132 -6 135 1 3 7 59 14 124 12 136 22 165 38
117 6 -17 18 -31 26 -31 18 0 20 12 7 57 -9 31 -8 32 22 35 29 3 33 7 37 43 3
22 22 67 43 100 20 33 37 73 37 88 0 22 4 27 25 27 22 0 25 4 25 35 0 23 5 35
13 35 25 0 44 34 77 135 40 122 71 186 118 244 l36 44 14 -34 c14 -35 40 -69
52 -69 4 0 10 8 12 18 3 10 26 32 50 49 l46 31 11 -38 c6 -21 18 -43 25 -50
12 -9 18 -6 31 20 11 22 21 29 34 25 10 -3 31 5 51 20 38 28 70 33 70 10 0
-21 9 -19 71 15 30 16 57 30 62 30 4 0 7 -16 7 -35 0 -44 23 -47 45 -5 17 33
55 60 55 38 -1 -7 -7 -43 -14 -79 -10 -55 -10 -70 1 -85 7 -10 13 -44 13 -80
0 -110 18 -122 56 -39 25 55 24 81 -2 71 -18 -7 -17 4 1 28 20 26 20 76 0 76
-8 0 -15 -9 -15 -19 0 -11 -5 -23 -11 -27 -8 -5 -10 3 -5 27 3 19 9 62 12 96
6 57 9 63 38 74 35 14 66 38 66 51 0 15 -40 8 -101 -18 -34 -14 -86 -27 -117
-29 -32 -2 -90 -15 -130 -30 -41 -14 -80 -25 -88 -23 -17 4 33 82 106 168 74
86 128 168 144 218 23 69 28 203 9 217 -13 10 -13 21 -3 88 15 89 5 185 -35
362 -14 61 -25 126 -25 145 0 62 -15 68 -47 20 -75 -115 -148 -156 -155 -88
-2 17 -8 33 -15 35 -17 6 -31 -26 -43 -103 -17 -106 -43 -126 -57 -42 -9 54
-29 75 -36 36 -2 -13 -5 -2 -6 25 -1 48 -10 58 -31 32 -9 -11 -9 -27 0 -69 6
-31 9 -60 6 -65 -3 -5 7 -37 23 -71 38 -80 55 -183 47 -280 -10 -116 -20 -146
-53 -145 -25 0 -28 -4 -53 -105 -32 -125 -64 -211 -90 -242 -17 -21 -19 -21
-25 -5 -13 33 -43 19 -67 -30 -27 -56 -52 -63 -56 -15 -4 44 -23 41 -66 -10
-19 -24 -38 -39 -42 -35 -4 4 -2 29 4 57 21 92 -7 106 -63 30 -40 -54 -80 -90
-101 -90 -23 0 -16 25 37 125 42 81 50 103 47 141 -3 41 -5 44 -20 32 -9 -7
-19 -29 -21 -48 -3 -30 -11 -39 -74 -78 -40 -24 -77 -42 -83 -40 -6 2 14 37
45 77 71 94 85 121 92 182 l6 50 -40 -7 c-22 -3 -43 -2 -45 2 -3 5 7 54 23
108 37 128 44 198 27 256 -13 42 -16 45 -50 48 l-37 3 6 49 c4 31 -1 83 -12
137 l-18 88 47 106 c25 59 46 112 46 118 0 33 -102 -9 -162 -67 -31 -30 -38
-43 -38 -75 0 -54 -24 -43 -28 13 -2 27 4 60 17 91 37 85 24 102 -17 23 -20
-39 -57 -98 -81 -132 -34 -48 -46 -59 -60 -52 -9 5 -29 12 -44 15 -22 4 -27
10 -22 23 22 53 21 55 -28 48 -48 -7 -67 3 -42 24 26 22 16 28 -31 18 -32 -7
-49 -7 -57 1 -7 7 -5 12 9 16 43 14 66 26 61 31 -3 3 -30 9 -59 13 -46 5 -53
9 -56 30 -3 20 -1 23 15 16 64 -26 70 -11 18 42 -35 36 -40 53 -17 61 6 2 14
-8 18 -22 6 -25 24 -37 24 -16 0 6 5 10 10 10 6 0 10 -12 10 -26 0 -16 13 -39
34 -60 44 -44 94 -47 125 -8 36 46 20 60 -26 24 -14 -11 -32 -20 -39 -20 -18
0 -59 74 -80 145 -20 69 -23 215 -5 259 16 40 8 42 -23 6z m-12 -172 c3 -15 2
-29 -3 -32 -11 -7 -21 17 -21 52 0 31 15 19 24 -20z m16 -84 c0 -13 -4 -24
-10 -24 -5 0 -10 14 -10 31 0 17 4 28 10 24 6 -3 10 -17 10 -31z m270 -453 c0
-37 -30 -74 -52 -66 -18 7 -16 19 16 72 23 37 36 34 36 -6z m-160 -133 c10
-40 9 -75 -5 -189 -10 -76 -15 -166 -13 -199 2 -33 1 -60 -4 -60 -19 0 -46 41
-53 81 -4 24 -19 59 -34 78 -44 58 -41 174 11 375 l9 39 39 -38 c27 -27 42
-52 50 -87z m133 10 c25 -10 27 -15 27 -63 0 -39 6 -61 25 -90 31 -45 27 -63
-24 -107 -22 -19 -41 -46 -45 -63 -8 -38 -42 -95 -56 -95 -5 0 -10 19 -10 42
0 23 -6 49 -14 57 -11 13 -11 26 0 76 7 33 20 93 29 134 9 41 13 87 10 103 -7
30 -8 30 58 6z m-329 -2142 l33 -14 6 -99 c6 -92 44 -271 65 -309 9 -16 -22
-94 -38 -94 -25 0 -67 25 -96 57 l-34 37 0 -27 c0 -30 -9 -32 -57 -15 -40 15
-42 34 -13 126 13 43 20 92 20 150 1 107 12 162 41 185 26 21 30 21 73 3z m79
-550 l67 0 0 -32 c0 -20 -9 -40 -26 -57 -23 -23 -29 -24 -57 -15 -51 18 -79
40 -93 75 -19 43 -18 45 14 36 15 -4 57 -7 95 -7z"/>
<path d="M3896 794 c-7 -28 0 -47 15 -39 12 8 12 52 0 59 -5 3 -12 -6 -15 -20z"/>
<path d="M3890 711 c-12 -24 -13 -81 -2 -81 5 0 17 19 27 43 10 23 20 45 23
50 2 4 -6 7 -17 7 -11 0 -25 -9 -31 -19z"/>
<path d="M12627 4013 c-9 -9 12 -33 29 -33 19 0 18 26 -2 34 -19 7 -19 7 -27
-1z"/>
<path d="M4087 3973 c-18 -34 -23 -83 -8 -83 13 0 33 65 29 92 -3 22 -5 21
-21 -9z"/>
<path d="M12622 3941 c3 -23 1 -27 -13 -24 -10 3 -33 -7 -53 -22 -34 -26 -34
-26 -41 -6 -8 26 -30 27 -62 1 -33 -26 -58 -25 -77 1 -11 17 -21 20 -41 15
-33 -8 -30 -35 5 -53 14 -7 24 -18 22 -24 -2 -7 4 -29 13 -51 8 -21 15 -62 15
-91 0 -28 12 -104 25 -167 16 -70 28 -164 32 -240 5 -115 4 -128 -16 -165 -16
-30 -21 -57 -21 -113 0 -56 -5 -83 -22 -115 -17 -32 -22 -59 -23 -112 0 -99 4
-105 68 -105 148 0 255 139 203 264 -20 49 -20 56 2 56 22 0 52 72 52 125 0
22 -7 76 -15 120 -10 59 -14 167 -15 408 0 326 0 327 -21 327 -18 0 -21 -5
-17 -29z"/>
<path d="M5240 3879 c-58 -11 -122 -17 -142 -14 -23 3 -38 1 -40 -6 -3 -9 -14
-8 -41 2 -20 7 -39 10 -42 7 -11 -11 7 -36 33 -46 57 -21 62 -22 62 -5 0 12 6
14 33 8 17 -4 39 -6 47 -5 8 1 43 2 77 3 61 2 91 19 46 25 -13 2 -23 8 -23 13
0 6 14 8 33 5 17 -3 61 -11 96 -17 34 -5 65 -8 67 -6 3 2 -3 14 -13 25 -26 31
-75 33 -193 11z"/>
<path d="M4335 3829 c-19 -12 -19 -12 0 -20 46 -18 134 -5 113 17 -12 11 -95
13 -113 3z"/>
<path d="M4260 3780 c0 -5 10 -14 21 -21 17 -9 19 -13 8 -20 -8 -5 -26 -9 -41
-9 -35 0 -36 -17 -3 -30 22 -8 24 -13 15 -30 -8 -16 -8 -20 4 -20 19 0 35 27
29 49 -2 11 12 25 42 44 25 15 43 32 40 37 -8 13 -115 13 -115 0z"/>
<path d="M5070 3465 c0 -9 5 -15 11 -13 6 2 11 8 11 13 0 5 -5 11 -11 13 -6 2
-11 -4 -11 -13z"/>
<path d="M6175 3393 c12 -66 45 -102 45 -49 0 54 -12 86 -32 86 -18 0 -19 -4
-13 -37z"/>
<path d="M5066 3265 c-9 -25 -7 -128 4 -145 15 -24 22 -5 24 69 1 69 -14 111
-28 76z"/>
<path d="M6150 3228 c0 -7 10 -28 21 -47 15 -25 19 -44 15 -70 -3 -19 1 -57
10 -85 8 -28 18 -62 22 -75 4 -13 12 -26 17 -28 19 -6 -1 155 -31 265 -11 40
-19 52 -34 52 -11 0 -20 -6 -20 -12z"/>
<path d="M6197 2903 c-8 -13 -39 -195 -34 -200 11 -10 57 104 57 141 0 42 -13
75 -23 59z"/>
<path d="M6680 2888 c0 -7 -11 -28 -25 -48 l-25 -36 20 -53 c21 -55 20 -85 -5
-95 -11 -4 -15 2 -15 24 0 17 -4 30 -9 30 -12 0 -144 -272 -187 -388 -51 -136
-68 -235 -61 -354 4 -67 3 -98 -5 -98 -10 0 -8 -18 7 -68 6 -18 4 -21 -9 -16
-22 8 -20 -8 5 -50 11 -19 18 -40 14 -46 -10 -17 -24 -2 -35 40 -8 29 -16 40
-30 40 -11 0 -24 9 -30 20 -14 25 -30 17 -30 -15 0 -55 -23 -70 -55 -35 -14
16 -16 29 -11 70 4 27 4 50 0 50 -16 0 -75 -54 -106 -96 l-33 -46 -6 28 -6 29
-12 -30 c-26 -63 -33 -141 -22 -242 33 -291 35 -322 24 -436 -12 -112 -54
-297 -96 -415 l-22 -64 36 -31 c20 -18 39 -42 43 -55 11 -33 79 -79 137 -91
71 -15 148 -14 155 2 11 30 9 130 -4 134 -7 3 -10 -1 -6 -10 5 -13 0 -14 -28
-7 -18 5 -54 12 -80 15 -46 6 -47 6 -64 61 -9 30 -21 57 -25 60 -13 8 -11 -48
3 -100 8 -30 9 -52 2 -67 -9 -20 -13 -17 -62 48 l-51 69 14 60 c18 80 52 169
69 183 11 9 28 5 72 -16 46 -23 60 -35 69 -63 7 -19 29 -60 49 -89 21 -30 40
-68 43 -83 6 -28 28 -38 36 -15 7 23 -14 92 -37 117 -78 83 -91 211 -50 505
11 83 24 131 53 195 21 47 46 111 56 143 16 46 22 56 37 51 15 -4 18 0 18 24
0 16 7 46 15 65 12 29 13 46 4 94 -14 75 -5 294 16 393 29 130 80 275 96 273
10 -2 22 20 39 73 25 79 35 93 53 75 38 -38 67 29 67 155 l0 95 27 -21 c36
-28 55 -11 27 26 -22 30 -64 51 -64 32z"/>
<path d="M6057 2591 c-38 -72 -67 -136 -65 -141 2 -6 13 -4 28 3 17 8 28 26
35 53 6 22 20 53 32 68 25 31 46 96 41 127 -2 13 -27 -26 -71 -110z"/>
<path d="M5887 2343 c-13 -13 -7 -43 17 -78 31 -44 40 -105 31 -189 -5 -50 0
-93 21 -201 l28 -137 23 26 c13 15 23 35 23 44 0 9 3 28 6 42 5 25 5 24 -20
-5 -30 -34 -35 -16 -8 23 26 38 32 57 21 73 -7 11 -13 9 -29 -11 l-20 -25 0
30 c0 17 9 53 19 80 14 36 16 56 10 68 -14 24 -25 14 -33 -28 -7 -36 -26 -58
-26 -30 0 8 7 32 15 52 21 49 19 113 -6 175 -11 29 -19 63 -16 75 4 19 0 23
-23 23 -15 0 -30 -3 -33 -7z"/>
<path d="M5730 1888 c-30 -101 -41 -213 -47 -487 -5 -265 -7 -284 -24 -288
-24 -7 -24 -17 1 -34 18 -13 19 -17 5 -79 -32 -155 -32 -171 14 -264 29 -58
49 -86 64 -90 43 -11 113 -5 154 13 59 27 65 65 28 168 -21 57 -29 100 -33
172 -9 209 -6 252 31 432 43 204 50 339 19 339 -23 0 -42 19 -42 42 0 10 -4
18 -9 18 -11 0 -21 -25 -21 -55 0 -62 -34 -21 -46 56 -8 50 -27 59 -60 29 -18
-18 -24 -20 -24 -8 0 9 7 21 15 28 19 15 20 50 2 50 -8 0 -20 -19 -27 -42z
m96 -824 c48 -13 69 -253 26 -296 -16 -16 -72 13 -79 40 -3 12 -3 36 1 53 4
22 2 29 -7 27 -6 -3 -16 -30 -21 -61 -9 -63 -25 -73 -52 -32 -32 49 14 232 65
260 29 16 37 17 67 9z m-46 -354 c0 -16 -3 -30 -6 -30 -14 0 -45 22 -54 40
-10 18 -7 20 25 20 32 0 35 -2 35 -30z m54 4 c10 -25 7 -34 -9 -34 -9 0 -15 9
-15 25 0 28 15 34 24 9z"/>
<path d="M9192 1211 c-13 -22 -17 -50 -17 -122 l0 -94 77 2 c71 1 148 23 148
42 0 4 -27 13 -59 20 -71 16 -111 39 -130 74 -12 23 -11 30 8 62 25 43 25 45
6 45 -8 0 -23 -13 -33 -29z"/>
</g>
</svg>
