<?xml version="1.0" encoding="UTF-8"?>
<svg id="Layer_1" xmlns="http://www.w3.org/2000/svg" version="1.1" viewBox="0 0 4000 4000">
  <!-- Generator: Adobe Illustrator 29.8.1, SVG Export Plug-In . SVG Version: 2.1.1 Build 2)  -->
  <defs>
    <style>
      .st0, .st1 {
        fill: #231916;
      }

      .st2 {
        fill: #fff;
        stroke: #000;
        stroke-miterlimit: 10;
      }

      .st1 {
        fill-rule: evenodd;
      }
    </style>
  </defs>
  <rect class="st2" x=".5" y=".5" width="3999" height="3999"/>
  <g>
    <path class="st1" d="M1657.28,1742.04c-1.1-2.09-2.19-4.17-3.26-6.23,1.07,2.06,2.16,4.14,3.26,6.23M1660.67,1748.46c-1.07-2.02-2.13-4.02-3.17-6.01,1.05,1.99,2.1,3.99,3.17,6.01ZM1664.14,1754.98c-.97-1.81-1.93-3.61-2.88-5.4.95,1.79,1.91,3.59,2.88,5.4ZM1668.04,1762.25c-1.14-2.12-2.27-4.22-3.39-6.32,1.12,2.1,2.25,4.2,3.39,6.32ZM1671.71,1769.02c-1.17-2.15-2.33-4.29-3.48-6.42,1.15,2.13,2.31,4.27,3.48,6.42ZM1679.15,1782.61c-2.35-4.26-4.67-8.5-6.97-12.72,2.29,4.21,4.62,8.46,6.97,12.72ZM1687.48,1797.62c-1.26-2.25-2.51-4.5-3.76-6.74,1.25,2.24,2.5,4.49,3.76,6.74ZM1695.37,1811.61c-1.22-2.15-2.44-4.31-3.65-6.46,1.22,2.15,2.43,4.31,3.65,6.46ZM1612.13,1637.92c10.98,26.22,15.76,54.72,15.73,84.52-.18,145.03-114.65,320.83-186.11,414.58,44.73,115.14,205.91,256.28,287.71,317.85l59.92-55.35s-187.48-150.25-194.07-248.33c0,0,113.01-23.56,171.1-122.92-142.61-105.83-138.62-300.42-138.62-300.42,23.27,87.31,49.97,183.83,137.72,258.79,3.55,7.37,17.6,5.37,21.48,12.68.9-1.95,3.9-7.1,6.8-12.16,5.77,41.8-34.79-42.32-52.46-58.14-48.83-59.36-69.97-128.57-87.51-193.59h0c-23.92-45.98-41.14-84.01-41.7-97.53Z"/>
    <path class="st1" d="M2573.26,1908.49c-30.61,45.29-184.42,17.63-184.42,17.63,57.41,49.87,89.59,92.07,95.37,129.33,118.01-11.03,89.05-146.96,89.05-146.96"/>
    <path class="st0" d="M2261.89,1997.45c-23.46,492.5,237.14,374.41,280.93,504.22,4.33-93.8,20.46-67.7-34.14-141.62-39.9-54.01-31.28-110.35-22.28-169.2,14.37-93.94,29.81-194.88-180.01-295.74-18.11-8.7-34.37-16.91-48.95-24.58-15.19-7.99-28.71-15.45-40.69-22.33-94.61-54.29-152.8-136.13-215.02-223.62-64.02-90.03-132.4-186.19-249.36-262.46-3.67-2.39-116.33,23.91-116.33,23.91,0,0,101.31-37.34,99.24-40.46-84.4-127.36-187.94-36.26-194.75-30.05h0c-48.96,48.97-110.62,106.17-128.14,120.43-.45,44.62,22.16,76.33,33.68,86.72,107.48-30.08,164.41-39.81,268.34-5.13-97.03-22.79-267.5,28.99-267.85,29.1l-5.71,1.69-4.68-3.65c-.17-.13-58.93-45-54.61-115.1l.31-5.13,4-3.22c.24-.19,82.42-66.33,138.24-122.14l.36-.32c.38-.35,130.95-123.5,233.61,39.48,124.9,79.37,196.02,179.37,262.52,272.89,60.67,85.31,117.41,165.11,207.67,216.91,12.24,7.02,25.57,14.39,39.97,21.96,15.01,7.9,31.07,16.02,48.13,24.22,225.38,108.34,208.61,218,192.99,320.07-8.27,54.06-16.18,105.8,17.92,151.96,4.87,6.59,10.54,13.3,17.15,20.03,6.14,6.27,13.13,12.59,21.08,18.91l3.58,2.85c16.66,109.56,33.29,219.12,49.93,328.68h-127.06l3.98-14.66c.1-.38,37.19-132.1-62.63-233.36-107.82-50.86-159-112.77-181.79-179.48-9.72-28.45-14.78-57.47-16.48-86.68-125.31,15.71-206.49-23.12-245.14-49.08-1.68,105.48-32.65,204.79-66.71,327.49l-2.37,8.53h-102.11l2.74-13.84c.13-.64,44.24-221.24,23.93-361.07-83.98-110.33-125.4-212.15-139.78-348.08,89.56,330.18,192.23,273.35,200.53,432.2,15.84-11.76,83.77-45.22,55-231.63,12.91,40.26,20.99,125.73,31.42,147.99,31.84,67.94,217.69,107.1,240.8,41.95,9.69-27.33,18.39-118.02,28.56-159.56"/>
    <path class="st0" d="M1514.19,1508.45c88.44,34.87,110.28,116.84,135,209.65,22.95,86.18,48.53,182.22,135.1,254.01l-14.8,17.88c-92.25-76.51-118.85-176.38-142.72-265.99-23.11-86.77-43.52-163.39-121.02-193.95l8.44-21.6Z"/>
    <path class="st0" d="M1467.15,1630.55c16.89-19.19,45.96-70.28,33.37-106.92l21.96-7.53c26.49,77.11-52.76,133.42-52.98,133.59l-24.29,17.53c19.74-31,20.62-111.34,11.3-123.45,19.92,19.79,14.14,59.08,10.63,86.79"/>
    <path class="st1" d="M1606.26,1259.89c14.98-71,51.4-138.19,108.82-191.11,146.98-135.45,375.93-126.1,511.38,20.88,135.45,146.98,126.1,375.93-20.88,511.38-91.66,84.47-215.21,112.63-328.07,86.2,291.34-21.87,459.24-321.87,281.43-514.82-88.81-96.37-238.92-102.5-335.29-13.69-58.24,53.67-83.14,152.12-85.94,161.22-7.31,23.7-29.38-33.86-58.71-41.35-17.94-4.58-50.21,8.53-72.74-18.71"/>
    <path class="st1" d="M1985.78,2214.52c7.81,96,77.87,195.03,192.57,256.87,106.24,106.24,66.89,245.92,66.89,245.92h119.52l-68.36-310.84c-17.2-13.68-30.33-27.6-40.31-41.12-40.69-55.08-46.23-136.23-46.24-136.13-209.76-8.08-219.94-75.74-219.94-75.74-.33,20.51-1.76,40.79-4.11,61.05"/>
  </g>
</svg>